<svg xmlns="http://www.w3.org/2000/svg" viewBox="0 0 612.29 595.06"><defs><style>.cls-1{opacity:0.13;}.cls-2{fill:#38b5cb;}.cls-3{fill:#bcbec0;}.cls-4{fill:#f6cb4c;}.cls-11,.cls-5,.cls-9{fill:none;stroke:#221f20;stroke-linejoin:round;}.cls-5{stroke-width:5px;}.cls-6{fill:#e86524;}.cls-7{fill:#fcfdfd;}.cls-8{fill:#d1d3d4;}.cls-11,.cls-9{stroke-width:4.93px;}.cls-10{fill:#f1f2f1;}.cls-11{stroke-dasharray:8.19 8.19;}.cls-12{fill:#e6e7e8;}.cls-13{fill:#dddedf;}</style></defs><title>img-update</title><g id="图层_2" data-name="图层 2"><g id="图层_1-2" data-name="图层 1"><g class="cls-1"><path class="cls-2" d="M113,295.09H.18C4,134.09,128.29,1.34,298.29.05v108C202.29,110.59,115.45,188.09,113,295.09Z"/><path class="cls-3" d="M113,295.09a11.79,11.79,0,0,0-.12,2.33c0,103.31,83.75,185.85,187.06,185.85,51.63,0,98.37-21.51,132.22-55.34l78,77.7a296.36,296.36,0,0,1-212.68,89.43C133.18,595.06,0,464.22,0,299.95a45.4,45.4,0,0,1,.18-4.86Z"/><path class="cls-4" d="M487,295c0-103.3-82.14-187.06-185.44-187.06-1.63,0-3.23.09-3.23.11V0c169,0,297,133.18,297,297.46,0,80.91-32.56,154.24-85,207.87l-78.11-78A186.44,186.44,0,0,0,487,295Z"/></g><path class="cls-5" d="M205.34,469.59h15.45v-35H205.34c-.16-4-3.56-10.24-3.81-10.72l13.83-14.59-24-24.36-14.62,13.63c-.47-.25-5-3.84-10-4v-16h-35v16c0,.16-7.38,3.56-7.84,3.81l-13.15-13.83-23.64,24,14,15.36c-.25.48-3.48,6.72-3.64,10.72H74.79v35H97.5c.16,0,3.56,6.64,3.81,7.11L87.48,489.48l24,23.45,12.49-14.08c.47.25,7.84,3.39,7.84,3.55v22.19h35V502.4c5-.16,9.51-3.56,10-3.81L191,512.42l24.17-24L201.43,476.7C201.68,476.23,205.18,469.59,205.34,469.59Z"/><circle class="cls-6" cx="147.77" cy="450.48" r="18.57"/><path class="cls-5" d="M492.61,187.59h16.18v-35H492.61c-.16-4-3.56-10.4-3.81-10.88L502.63,127l-24-24.4L464.4,116.27c-.47-.25-5.61-3.86-9.61-4V95.59h-35v16.65c0,.16-7.74,3.56-8.21,3.81l-13.34-13.83-23.73,24,13.94,15.51c-.25.48-3.52,6.88-3.68,10.88h-22v35h22c.16,0,3.56,6.48,3.81,6.95l-13.82,12.71,24,23.41,12.85-14.1c.47.25,8.21,3.37,8.21,3.53v21.51h35V220.08c4-.16,9.14-3.56,9.61-3.81l14,13.82,24.08-24-13.77-11.59C489,194.08,492.45,187.59,492.61,187.59Z"/><circle class="cls-6" cx="435.04" cy="168.17" r="18.57"/><polygon class="cls-7" points="436.69 167.99 436.69 477.54 149.42 477.54 149.42 98.65 367.35 98.65 436.69 167.99"/><polygon class="cls-8" points="366.29 169.09 436.69 169.09 366.29 98.65 366.29 169.09"/><polygon class="cls-9" points="367.35 98.65 149.42 98.65 149.42 477.54 436.69 477.54 436.69 167.99 367.35 98.65"/><circle class="cls-2" cx="287.17" cy="293.54" r="104.32"/><g id="_编组_" data-name="&lt;编组&gt;"><path class="cls-8" d="M359.48,278.19v34.67h-15.9c-.15,0-3.67,6.39-3.91,6.83l13.72,11.49-24.17,24L315,341.34c-.47.25-5.05,3.64-10,3.81v22.19H270.33V345.15c0-.17-7.53-3.27-8-3.52L249.7,355.75l-24-23.41,13.82-12.65c-.25-.44-3.64-6.83-3.79-6.83H213.37V278.19h22.39c.15-5,3.39-10.67,3.64-11.14l-14-15.78,23.67-24,13.22,13.82c.47-.25,8-3.64,8-3.81V221.23H305V237.3c5,.17,9.53,3.81,10,4.06l14.64-13.6,24,24.47L339.77,267c.25.47,3.66,6.19,3.81,11.14Zm-54.9,15A18.57,18.57,0,1,0,286,311.8,18.56,18.56,0,0,0,304.58,293.22Z"/><path class="cls-10" d="M286,274.65a18.57,18.57,0,1,1-18.57,18.57A18.56,18.56,0,0,1,286,274.65Z"/><path class="cls-9" d="M343.58,312.86h15.9V278.19h-15.9c-.15-5-3.57-10.67-3.81-11.14l13.84-14.81-24-24.47L315,241.36c-.47-.25-5.05-3.89-10-4.06V221.23H270.33V237.3c0,.17-7.53,3.56-8,3.81L249.1,227.3l-23.67,24,14,15.78c-.25.47-3.49,6.19-3.64,11.14H213.37v34.67h22.39c.15,0,3.54,6.39,3.79,6.83l-13.82,12.65,24,23.41,12.63-14.12c.47.25,8,3.34,8,3.52v22.19H305V345.15c5-.17,9.53-3.56,10-3.81l14.22,13.82,24.17-24-13.72-11.49C339.91,319.25,343.43,312.86,343.58,312.86Z"/></g><circle class="cls-11" cx="287.17" cy="293.54" r="104.32"/><g id="_编组_2" data-name="&lt;编组&gt;"><polygon class="cls-12" points="287.8 439.16 287.8 451.54 247.85 437.77 287.8 424.3 287.8 439.16"/><polygon class="cls-2" points="552.78 424.3 552.78 451.54 530.49 451.54 530.49 425.54 530.49 424.3 552.78 424.3"/><polygon class="cls-12" points="530.49 425.54 530.49 451.54 513.16 451.54 513.16 439.16 513.16 424.3 530.49 424.3 530.49 425.54"/><polygon class="cls-4" points="513.16 439.16 513.16 451.54 287.8 451.54 287.8 439.16 511.92 439.16 513.16 439.16"/><polygon class="cls-4" points="513.16 424.3 513.16 439.16 511.92 439.16 287.8 439.16 287.8 424.3 513.16 424.3"/><line class="cls-9" x1="287.8" y1="424.3" x2="513.16" y2="424.3"/><line class="cls-9" x1="513.16" y1="451.54" x2="287.8" y2="451.54"/><polygon class="cls-9" points="530.49 424.3 552.78 424.3 552.78 451.54 530.49 451.54 513.16 451.54 513.16 439.16 513.16 424.3 530.49 424.3"/><polygon class="cls-9" points="287.8 424.3 247.85 437.77 287.8 451.54 287.8 439.16 287.8 424.3"/><polyline class="cls-9" points="511.92 439.16 287.8 439.16 286.56 439.16"/><polyline class="cls-9" points="530.49 425.54 530.49 451.54 530.49 452.78"/></g><line class="cls-5" x1="228.29" y1="437.59" x2="170.29" y2="437.59"/><line class="cls-5" x1="228.29" y1="418.59" x2="170.29" y2="418.59"/><line class="cls-5" x1="228.29" y1="455.59" x2="208.29" y2="455.59"/><path class="cls-5" d="M92.79,161.09v15.56c0,11.61,14.7,11.61,14.7,23.21s-14.94,11.6-14.94,23.21,14.82,11.6,14.82,23.21-15.15,11.61-15.15,23.21,14.57,11.61,14.57,23.22v19.38"/><polygon class="cls-6" points="76.07 111.28 84.24 149.89 93.63 140.5 110.23 157.1 123.15 144.19 106.54 127.59 114.68 119.45 76.07 111.28"/><line class="cls-5" x1="106.79" y1="322.09" x2="106.79" y2="334.09"/><line class="cls-5" x1="106.79" y1="345.09" x2="106.79" y2="357.09"/><line class="cls-5" x1="506.29" y1="294.59" x2="458.29" y2="294.59"/><line class="cls-5" x1="562.29" y1="318.59" x2="458.29" y2="318.59"/><line class="cls-5" x1="562.29" y1="344.59" x2="458.29" y2="344.59"/><line class="cls-5" x1="562.29" y1="368.59" x2="458.29" y2="368.59"/><line class="cls-5" x1="458.29" y1="395.59" x2="478.29" y2="395.59"/><line class="cls-5" x1="487.29" y1="395.59" x2="506.29" y2="395.59"/><rect class="cls-8" x="458.29" y="265.09" width="59" height="11"/><rect class="cls-8" x="524.29" y="265.09" width="18" height="11"/><rect class="cls-13" x="175.29" y="125.09" width="38" height="6"/><rect class="cls-13" x="175.29" y="137.09" width="74" height="8"/><line class="cls-5" x1="298.29" y1="524.59" x2="312.29" y2="524.59"/><line class="cls-5" x1="319.29" y1="524.59" x2="347.29" y2="524.59"/><line class="cls-5" x1="298.29" y1="541.59" x2="312.29" y2="541.59"/><line class="cls-5" x1="319.29" y1="541.59" x2="336.29" y2="541.59"/><line class="cls-5" x1="332.29" y1="64.59" x2="319.29" y2="64.59"/><line class="cls-5" x1="312.29" y1="64.59" x2="285.29" y2="64.59"/><line class="cls-5" x1="332.29" y1="45.59" x2="319.29" y2="45.59"/><line class="cls-5" x1="312.29" y1="45.59" x2="294.29" y2="45.59"/><line class="cls-5" x1="63.29" y1="296.59" x2="51.29" y2="296.59"/><line class="cls-5" x1="44.29" y1="296.59" x2="17.29" y2="296.59"/><line class="cls-5" x1="63.29" y1="279.59" x2="51.29" y2="279.59"/><line class="cls-5" x1="44.29" y1="279.59" x2="27.29" y2="279.59"/><line class="cls-5" x1="529.29" y1="217.59" x2="542.29" y2="217.59"/><line class="cls-5" x1="548.29" y1="217.59" x2="577.29" y2="217.59"/><line class="cls-5" x1="529.29" y1="234.59" x2="542.29" y2="234.59"/><line class="cls-5" x1="548.29" y1="234.59" x2="566.29" y2="234.59"/><line class="cls-5" x1="193.79" y1="35.09" x2="193.79" y2="45.09"/><line class="cls-5" x1="193.79" y1="54.09" x2="193.79" y2="65.09"/><line class="cls-5" x1="178.29" y1="52.59" x2="187.29" y2="52.59"/><line class="cls-5" x1="200.29" y1="52.59" x2="210.29" y2="52.59"/><line class="cls-5" x1="458.79" y1="523.09" x2="458.79" y2="533.09"/><line class="cls-5" x1="458.79" y1="542.09" x2="458.79" y2="553.09"/><line class="cls-5" x1="443.29" y1="538.59" x2="452.29" y2="538.59"/><line class="cls-5" x1="466.29" y1="538.59" x2="475.29" y2="538.59"/><line class="cls-5" x1="594.79" y1="312.09" x2="594.79" y2="322.09"/><line class="cls-5" x1="594.79" y1="333.09" x2="594.79" y2="342.09"/><line class="cls-5" x1="579.29" y1="329.59" x2="589.29" y2="329.59"/><line class="cls-5" x1="601.29" y1="329.59" x2="612.29" y2="329.59"/><line class="cls-5" x1="50.79" y1="365.09" x2="50.79" y2="375.09"/><line class="cls-5" x1="50.79" y1="384.09" x2="50.79" y2="395.09"/><line class="cls-5" x1="33.29" y1="380.59" x2="44.29" y2="380.59"/><line class="cls-5" x1="56.29" y1="380.59" x2="66.29" y2="380.59"/><line class="cls-5" x1="28.79" y1="160.09" x2="28.79" y2="169.09"/><line class="cls-5" x1="28.79" y1="179.09" x2="28.79" y2="188.09"/><line class="cls-5" x1="12.29" y1="175.59" x2="21.29" y2="175.59"/><line class="cls-5" x1="33.29" y1="175.59" x2="44.29" y2="175.59"/><line class="cls-5" x1="482.79" y1="53.09" x2="482.79" y2="62.09"/><line class="cls-5" x1="482.79" y1="72.09" x2="482.79" y2="83.09"/><line class="cls-5" x1="467.29" y1="68.59" x2="478.29" y2="68.59"/><line class="cls-5" x1="490.29" y1="68.59" x2="500.29" y2="68.59"/><line class="cls-5" x1="193.79" y1="550.09" x2="193.79" y2="560.09"/><line class="cls-5" x1="193.79" y1="569.09" x2="193.79" y2="580.09"/><line class="cls-5" x1="178.29" y1="567.59" x2="187.29" y2="567.59"/><line class="cls-5" x1="200.29" y1="567.59" x2="210.29" y2="567.59"/></g></g></svg>