<svg xmlns="http://www.w3.org/2000/svg" viewBox="0 0 1069 664"><defs><style>.cls-1{fill:#d7f7f3;}.cls-2{fill:#ffdaa5;}.cls-3{fill:#3d290e;}.cls-4,.cls-6{fill:none;stroke:#3d290e;stroke-width:8px;}.cls-4{stroke-miterlimit:10;}.cls-5{fill:#fff;}.cls-6{stroke-linecap:round;stroke-linejoin:round;}.cls-7{fill:#deeda6;}.cls-8{fill:#d3e87c;}.cls-9{fill:#5e95f7;}.cls-10{fill:#e58d7c;}.cls-11{fill:#fcd6d2;}.cls-12{fill:#564a52;}.cls-13{fill:#e84934;}</style></defs><title>img-share</title><g id="图层_2" data-name="图层 2"><g id="图层_4" data-name="图层 4"><rect class="cls-1" x="35" y="127" width="62" height="69" rx="31" ry="31"/><path class="cls-1" d="M1004,368h0a31.09,31.09,0,0,0-31,31v7a31.09,31.09,0,0,0,31,31h0a31.09,31.09,0,0,0,31-31v-7A31.09,31.09,0,0,0,1004,368Z"/><rect class="cls-1" x="942" y="504" width="127" height="69" rx="34.5" ry="34.5"/><rect class="cls-1" x="818" width="94" height="69" rx="34.5" ry="34.5"/><path class="cls-1" d="M760.75,432H924.5A34.6,34.6,0,0,0,959,397.5h0A34.63,34.63,0,0,0,932.5,364,272.09,272.09,0,0,0,934,335.5q0-7.29-.39-14.5h73.89a34.6,34.6,0,0,0,34.5-34.5h0a34.6,34.6,0,0,0-34.5-34.5H920.87a290.58,290.58,0,0,0-26-58H949.5A34.6,34.6,0,0,0,984,159.5h0A34.6,34.6,0,0,0,949.5,125H840.61l-1-1H666.44A30.53,30.53,0,0,1,636,93.56V91.44A30.53,30.53,0,0,1,666.44,61H761a27,27,0,0,0,0-54H555a26.88,26.88,0,0,0-4.37.36Q541.37,7,532,7C406.86,7,295.07,53.73,221.35,127H141.63A31.72,31.72,0,0,0,110,158.63v5.74A31.72,31.72,0,0,0,141.63,196H259.4A31.75,31.75,0,0,1,280,225.63v5.74A31.72,31.72,0,0,1,248.37,263H138.63A31.72,31.72,0,0,0,107,294.63v5.74a31.75,31.75,0,0,0,23,30.43q0,2.35,0,4.7a271.92,271.92,0,0,0,8.25,66.5h-42A30.31,30.31,0,0,0,66,432.22v2.55A30.31,30.31,0,0,0,96.22,465H314.5A34.6,34.6,0,0,1,349,499.5h0A34.6,34.6,0,0,1,314.5,534H211.67l.94,1H34.5A34.6,34.6,0,0,0,0,569.5H0A34.6,34.6,0,0,0,34.5,604H300.35c65.48,37.79,145.38,60,231.65,60,110.24,0,210.11-36.27,282.74-95H889.5A34.6,34.6,0,0,0,924,534.5h0A34.6,34.6,0,0,0,889.5,500H768.63A31.72,31.72,0,0,1,737,468.37v-5.74A31.76,31.76,0,0,1,760.75,432Z"/></g><g id="board"><path class="cls-2" d="M399,87h97A166,166,0,0,1,662,253v61A115,115,0,0,1,547,429H514A115,115,0,0,1,399,314V87A0,0,0,0,1,399,87Z"/><path class="cls-3" d="M399,87H661.74A25.26,25.26,0,0,1,687,112.26v.47A25.26,25.26,0,0,1,661.74,138H399a0,0,0,0,1,0,0V87a0,0,0,0,1,0,0Z"/><path class="cls-3" d="M399,138H640.72A24.28,24.28,0,0,1,665,162.28v2.44A24.28,24.28,0,0,1,640.72,189H399a0,0,0,0,1,0,0V138A0,0,0,0,1,399,138Z"/><circle class="cls-4" cx="474.5" cy="271.5" r="44.5"/><circle class="cls-4" cx="587.5" cy="271.5" r="44.5"/><circle class="cls-2" cx="394.5" cy="283.5" r="25.5"/><circle class="cls-2" cx="662.5" cy="283.5" r="25.5"/><path class="cls-5" d="M618,358c-7.16,6.46-36.3,31.28-81,32-47.22.76-78.25-25.91-85-32v-5H618Z"/><circle class="cls-3" cx="498" cy="271" r="9"/><line class="cls-6" x1="577" y1="255" x2="561.5" y2="270.5"/><line class="cls-6" x1="577" y1="286.5" x2="561.5" y2="271"/><line class="cls-6" x1="430" y1="265" x2="399" y2="256"/><line class="cls-6" x1="632" y1="266" x2="662" y2="255"/><path class="cls-7" d="M454.56,441s-95,22-87.09,56.77S443.25,609,443.25,609l20.36-17.38s-67.86-76.47-64.47-90.37S467,464.17,467,464.17Z"/><path class="cls-8" d="M439,467s-47,18-49,26,28,69,59,90a25,25,0,0,0,4-8s-42-36-54-74c20-27,35.83-19.56,43.92-27.28S439,467,439,467Z"/><path class="cls-7" d="M598.19,460.44s62.65,74.74,90.05,51.94S753.1,394.46,753.1,394.46l-24.71-10.28S690.93,479.3,677,482.57s-63.79-43.72-63.79-43.72Z"/><path class="cls-8" d="M630.42,462.54s37.33,33.76,45.37,31.92,48.84-56.21,53.53-93.36a25,25,0,0,0-8.94.06s-13.08,53.75-41.53,81.65c-33.13-5.61-33.67-23.09-44.21-26.8S630.42,462.54,630.42,462.54Z"/><rect class="cls-7" x="433" y="429" width="204" height="228" rx="47.31" ry="47.31"/><path class="cls-8" d="M437.07,470.83s52.23,40,75.41,37.58C483.15,523.05,437.07,470.83,437.07,470.83Z"/><path class="cls-8" d="M440.28,479.33s40.12,52.13,63.12,55.81C471.29,541.69,440.28,479.33,440.28,479.33Z"/><rect class="cls-8" x="523" y="449" width="27" height="202"/><circle class="cls-5" cx="536.5" cy="482.5" r="8.5"/><circle class="cls-5" cx="536.5" cy="519.25" r="8.5"/><circle class="cls-5" cx="536.5" cy="556" r="8.5"/><circle class="cls-5" cx="536.5" cy="592.75" r="8.5"/><circle class="cls-5" cx="536.5" cy="629.5" r="8.5"/><polygon class="cls-9" points="517 429 554 429 571 467 537 451 507 469 517 429"/><rect class="cls-8" x="576" y="491" width="34" height="45" rx="8" ry="8"/><rect class="cls-10" x="722" y="343" width="67" height="117" rx="8" ry="8" transform="translate(-76.18 200.77) rotate(-14.42)"/><rect class="cls-11" x="727.44" y="353.13" width="56.5" height="94.5" rx="6.61" ry="6.61" transform="translate(-75.89 200.78) rotate(-14.42)"/><path class="cls-12" d="M730,386.71a3.23,3.23,0,0,1,2.53.32,3.63,3.63,0,0,1,1,.83,3.15,3.15,0,0,1,.6,1.17,3.3,3.3,0,0,1,.1,1.33,3.54,3.54,0,0,1-.39,1.23,3.23,3.23,0,0,1-2,1.59l-1,.28q-.92.26-1.85.62a8.43,8.43,0,0,0-1.76.94l-.35.25-.35.25c-.08.11-.19.1-.32,0a.29.29,0,0,1,0-.32l.35-.25.35-.26.5-.33.51-.3a.18.18,0,0,0,.05-.29c-.08-.12-.16-.14-.26-.06l-.53.3-.52.33-.39.26-.35.29a.21.21,0,0,1-.32,0l0,0a.19.19,0,0,1,.05-.29,7.53,7.53,0,0,1,.78-.6l.52-.33.53-.3h0a.19.19,0,0,0,.05-.29c-.08-.12-.16-.14-.26-.06l-.58.32-.53.34a2.68,2.68,0,0,0-.41.29l-.4.32a.22.22,0,0,1-.32,0c-.09-.16-.08-.26,0-.32l.42-.32a3.2,3.2,0,0,1,.43-.29,10.14,10.14,0,0,1,2.09-1.12q1.09-.43,2.26-.76l.28-.08.6-.17a1,1,0,0,0,.66-.55,1.15,1.15,0,0,0,.1-.87,1.09,1.09,0,0,0-.53-.68,1.07,1.07,0,0,0-.85-.11l-2.05.58-.06,0a3.21,3.21,0,0,1-1.32.1,3.35,3.35,0,0,1-1.2-.4,3.39,3.39,0,0,1-1-.83,3.39,3.39,0,0,1-.71-2.52,3.36,3.36,0,0,1,.39-1.21,3.28,3.28,0,0,1,.82-1,3.21,3.21,0,0,1,1.18-.61l2.05-.58.6,2.13-2.05.58a1.07,1.07,0,0,0-.67.53,1.13,1.13,0,0,0,.43,1.53,1.07,1.07,0,0,0,.85.11l1.61-.45Z"/><path class="cls-12" d="M742.54,381.69c0-.15,0-.24.13-.28s.25.05.28.16l2.21,7.84L743,390l-.59-2.1-2.15.6.59,2.1-2.11.59L737,384.78l2.11-.59.61,2.17,2.15-.6-1-3.57c0-.11,0-.2.16-.28a.3.3,0,0,1,.28.16l.5,1.78a.18.18,0,0,0,.24.14.2.2,0,0,0,.16-.28l-.49-1.75a.26.26,0,0,1,0-.16.14.14,0,0,1,.15-.09.17.17,0,0,1,.24.14l.49,1.75a.23.23,0,1,0,.44-.12Z"/><path class="cls-12" d="M751.58,383a.14.14,0,0,1,0,.1,12.38,12.38,0,0,1-.27,4.72,4.25,4.25,0,0,0-.15.51,4.14,4.14,0,0,1-.15.51c0,.15-.14.2-.27.14h0a.21.21,0,0,1-.15-.3,6.55,6.55,0,0,0,.3-1,5.7,5.7,0,0,0,.14-.61c0-.21.06-.41.1-.63s0-.22-.17-.23a.17.17,0,0,0-.23.13v0a3.71,3.71,0,0,0-.12.6,3.69,3.69,0,0,1-.12.6,9.11,9.11,0,0,1-.28.94c0,.15-.14.2-.27.14h0c-.17,0-.21-.15-.12-.31l.26-.9a4.21,4.21,0,0,0,.13-.59c0-.19.06-.38.09-.58s0-.22-.17-.23-.23,0-.23.14l0,0a4.38,4.38,0,0,1-.08.56c0,.18-.08.37-.11.56l-.14.43-.13.43c0,.15-.14.2-.27.14a.21.21,0,0,1-.15-.3,2,2,0,0,0,.12-.41c0-.15.06-.28.09-.4a10.9,10.9,0,0,0-.09-5.65l-.34-1.21,0-.1a3.3,3.3,0,0,1-.1-1.33,3.23,3.23,0,0,1,.41-1.21,3.57,3.57,0,0,1,.82-1,3.11,3.11,0,0,1,1.16-.6l1.07-.3.6,2.13-1.07.3a1.07,1.07,0,0,0-.67.53,1.09,1.09,0,0,0-.1.85l0,.1.28,1,2.15-.6-.61-2.17,2.15-.6,2.42,8.6-2.15.6-1.21-4.3Z"/><path class="cls-12" d="M761.54,386c-.16,0-.25-.06-.28-.16l-2.68-9.53,2.12-.6-.6-2.13,2.05-.58a3.21,3.21,0,0,1,1.32-.1,3.3,3.3,0,0,1,1.2.4,3.35,3.35,0,0,1,1,.83,3.39,3.39,0,0,1,.5,3.35,3.1,3.1,0,0,1-1.36,1.59l3.77,2.14-1.08,2-5.55-3.15,1.47,5.23a.17.17,0,0,1-.14.24c-.15,0-.24,0-.28-.13l-.5-1.79q-.05-.19-.27-.13c-.13,0-.17.13-.13.28l.49,1.75a.24.24,0,0,1,0,.16.13.13,0,0,1-.14.09c-.15,0-.24,0-.28-.13l-.49-1.75a.2.2,0,0,0-.28-.16c-.13,0-.17.13-.13.28l.49,1.75Q761.75,385.92,761.54,386Zm-.85-10.29.61,2.17,2.05-.58a1.07,1.07,0,0,0,.67-.53,1.13,1.13,0,0,0-.43-1.53,1.07,1.07,0,0,0-.85-.11Z"/><path class="cls-12" d="M772.44,372.49l.61,2.17,2.15-.6.6,2.14-2.15.6.6,2.14,2.15-.6.6,2.14-4.26,1.2-2.41-8.57Zm-.61-2.17,2.11-.6.61,2.17-2.11.6Z"/><path class="cls-12" d="M738.56,405.43v0a.24.24,0,0,1,0-.22.29.29,0,0,1,.2-.17q.61-.22,1.23-.48a17.08,17.08,0,0,0,5.56-4l2.45,2.14-.61.61a20.78,20.78,0,0,1-5.82,3.84,12.73,12.73,0,0,1-1.48.61.46.46,0,0,1-.28,0,.3.3,0,0,1-.18-.13v0a.19.19,0,0,1,0-.24.44.44,0,0,1,.18-.15,15,15,0,0,0,1.43-.57,15.26,15.26,0,0,0,1.73-.87.21.21,0,0,0,.13-.15.26.26,0,0,0,0-.2.23.23,0,0,0-.18-.15.4.4,0,0,0-.23,0h-.05a12.48,12.48,0,0,1-1.68.83q-.66.31-1.33.57a.46.46,0,0,1-.28,0,.32.32,0,0,1-.18-.13s-.05,0-.05,0a.24.24,0,0,1,0-.22.29.29,0,0,1,.2-.17,12.52,12.52,0,0,0,1.33-.52,14.24,14.24,0,0,0,1.63-.83.21.21,0,0,0,.13-.15.27.27,0,0,0,0-.2.32.32,0,0,0-.18-.13.47.47,0,0,0-.28,0v0l-1.58.78q-.61.26-1.28.48a.31.31,0,0,1-.23,0A.66.66,0,0,1,738.56,405.43Zm8.37,11.82a14.76,14.76,0,0,0,.92-1.53.2.2,0,0,0,0-.2.29.29,0,0,0-.15-.15.23.23,0,0,0-.23,0,.7.7,0,0,0-.23.13v0q-.41.74-.87,1.44a11.8,11.8,0,0,1-.82,1.13.26.26,0,0,1-.2.11.47.47,0,0,1-.26,0v0a.22.22,0,0,1-.18-.17.21.21,0,0,1,.08-.22q.41-.52.77-1.09a9.92,9.92,0,0,0,.82-1.4.26.26,0,0,0,0-.2.21.21,0,0,0-.13-.15.26.26,0,0,0-.26,0,.33.33,0,0,0-.2.13v0a11.43,11.43,0,0,1-.82,1.35,12.08,12.08,0,0,1-.77,1,.24.24,0,0,1-.2.15.31.31,0,0,1-.26-.06.33.33,0,0,1-.18-.2.28.28,0,0,1,.08-.24l.71-1a12.87,12.87,0,0,0,2.19-6.8h-3.32v-2.92h10.2v2.92h-3.42a13.12,13.12,0,0,1-.2,2.31,16,16,0,0,1-2.5,6q-.41.61-.87,1.18a.26.26,0,0,1-.2.11.48.48,0,0,1-.26,0,.33.33,0,0,1-.18-.22.21.21,0,0,1,.08-.22Zm9.23-13-2.45,2.09-4.34-3.71,2.4-2.09Zm-2.55,13.48-2.4-2.09,2.45-2.14v-4.19h3.47v5.41Z"/><path class="cls-12" d="M775.19,397.41a.28.28,0,0,1,0,.44.37.37,0,0,1-.25.09H761v-3h5.87l-2.45-2.05,2.45-2.09,2.45,2.09L766.83,395h8.11a.38.38,0,0,1,.25.09.28.28,0,0,1,.1.22.27.27,0,0,1-.1.22.31.31,0,0,1-.2.09h-2.86a.38.38,0,0,0-.26.09.24.24,0,0,0-.1.17.27.27,0,0,0,.1.22.38.38,0,0,0,.26.09h2.81a.38.38,0,0,1,.25.09.28.28,0,0,1,0,.44.38.38,0,0,1-.25.09h-2.81a.29.29,0,0,0-.23.09.27.27,0,0,0-.08.17.32.32,0,0,0,.08.22.29.29,0,0,0,.23.09h2.81A.38.38,0,0,1,775.19,397.41Zm-10.82,6.41v2.92h3.42v2.92H761v-5.84Zm8.57,10.29-2.4,2h-.05l-1.89,1.66v.57h3.32v2.92h-3.32V425h-.05l-3.67,3.18-2.45-2.09,2.7-2.27v-2.49h-3.42v-2.92h3.42V416.6h0l3-2.49-2.76-2.36,2.45-2,2.7,2.31h.05Zm-1.79-13.26h.05v5.89h-3.42v-2.92h-3.42v-3h6.78Z"/><path class="cls-2" d="M782.4,371.09s-15.6,3.5-11.93,10.26,14.37-.84,14.37-.84l-2.44-9.42"/><path class="cls-2" d="M784.81,380.79s-18.76,7.76-16.78,15.68,19.74-3.79,19.74-3.79S774,400.23,773.4,406.26s17.34-1.69,17.34-1.69-13.08,4.53-12,11.49,14-3.56,14-3.56Z"/><path class="cls-2" d="M717.68,389.66S730,384.87,734.52,391s-13.87,10.6-13.87,10.6Z"/><rect class="cls-13" x="734" y="349" width="20" height="2" rx="1" ry="1" transform="translate(-63.72 196.28) rotate(-14.42)"/><circle class="cls-13" cx="731" cy="353" r="1"/><rect class="cls-13" x="752" y="450" width="35" height="5" rx="2.5" ry="2.5" transform="translate(-88.44 205.86) rotate(-14.42)"/></g></g></svg>