<svg xmlns="http://www.w3.org/2000/svg" xmlns:xlink="http://www.w3.org/1999/xlink" viewBox="0 0 598.65 44"><defs><style>.cls-1{fill:url(#未命名的渐变_40);}.cls-2{fill:url(#未命名的渐变_40-2);}.cls-3{fill:url(#未命名的渐变_40-3);}.cls-4{fill:url(#未命名的渐变_40-4);}.cls-5{fill:url(#未命名的渐变_40-5);}.cls-6{fill:url(#未命名的渐变_40-6);}.cls-7{fill:#467fd3;}.cls-8{fill:#ef8100;}.cls-9{fill:#17ceab;}.cls-10{fill:#ef0081;}.cls-11{fill:#5034c6;}.cls-12{fill:#ef0000;}</style><linearGradient id="未命名的渐变_40" x1="13.62" y1="26.99" x2="25.03" y2="26.99" gradientUnits="userSpaceOnUse"><stop offset="0" stop-color="#f6be00"/><stop offset="1" stop-color="#ebb500"/></linearGradient><linearGradient id="未命名的渐变_40-2" x1="13.62" y1="31.3" x2="25.03" y2="31.3" xlink:href="#未命名的渐变_40"/><linearGradient id="未命名的渐变_40-3" x1="18.06" y1="29.94" x2="20.58" y2="29.94" xlink:href="#未命名的渐变_40"/><linearGradient id="未命名的渐变_40-4" x1="13.67" y1="22.07" x2="20.6" y2="22.07" xlink:href="#未命名的渐变_40"/><linearGradient id="未命名的渐变_40-5" x1="18.08" y1="22.07" x2="25.01" y2="22.07" xlink:href="#未命名的渐变_40"/><linearGradient id="未命名的渐变_40-6" x1="0" y1="22" x2="38.68" y2="22" xlink:href="#未命名的渐变_40"/></defs><title>icon-usercenter</title><g id="图层_2" data-name="图层 2"><g id="icon"><g id="icon-money"><path class="cls-1" d="M23.77,28.25H14.87a1.26,1.26,0,0,1,0-2.52h8.89a1.26,1.26,0,1,1,0,2.52Z"/><path class="cls-2" d="M23.77,32.56H14.87a1.26,1.26,0,1,1,0-2.52h8.89a1.26,1.26,0,1,1,0,2.52Z"/><path class="cls-3" d="M19.32,36.93a1.26,1.26,0,0,1-1.26-1.26V24.2a1.26,1.26,0,0,1,2.52,0V35.67A1.26,1.26,0,0,1,19.32,36.93Z"/><path class="cls-4" d="M19.34,25.46a1.25,1.25,0,0,1-.87-.35l-4.41-4.27A1.26,1.26,0,1,1,15.8,19l4.41,4.27a1.26,1.26,0,0,1-.87,2.16Z"/><path class="cls-5" d="M19.34,25.46a1.26,1.26,0,0,1-.87-2.16L22.88,19a1.26,1.26,0,1,1,1.75,1.81l-4.42,4.27A1.25,1.25,0,0,1,19.34,25.46Z"/><path class="cls-6" d="M19.38,44a31.08,31.08,0,0,1-8.56-1,16.44,16.44,0,0,1-6.1-3.11,12.41,12.41,0,0,1-3.61-5A17.88,17.88,0,0,1,0,28.32a16.42,16.42,0,0,1,.5-4.11,17.62,17.62,0,0,1,1.33-3.55,19.31,19.31,0,0,1,1.85-3,23.94,23.94,0,0,1,2.1-2.41A21.3,21.3,0,0,1,11,11.44a1.26,1.26,0,0,1,.61-.16l15.63,0h0a1.26,1.26,0,0,1,.62.16,20.53,20.53,0,0,1,5,3.87l0,0c.69.71,1.38,1.51,2.07,2.37a16.79,16.79,0,0,1,1.9,3,19.36,19.36,0,0,1,1.32,3.53,15.82,15.82,0,0,1,.52,4.12,17.88,17.88,0,0,1-1.12,6.5,12.42,12.42,0,0,1-3.61,5A16.45,16.45,0,0,1,27.88,43,30.69,30.69,0,0,1,19.38,44ZM12,13.8A18.32,18.32,0,0,0,7.56,17a21.42,21.42,0,0,0-1.88,2.16,16.79,16.79,0,0,0-1.61,2.59,15.1,15.1,0,0,0-1.14,3,13.91,13.91,0,0,0-.42,3.48,15.39,15.39,0,0,0,.95,5.58,9.92,9.92,0,0,0,2.89,4,14,14,0,0,0,5.17,2.61,28.61,28.61,0,0,0,7.86.94,28.22,28.22,0,0,0,7.79-.94,14,14,0,0,0,5.16-2.61,9.93,9.93,0,0,0,2.89-4,15.39,15.39,0,0,0,.95-5.58,13.31,13.31,0,0,0-.43-3.47,16.84,16.84,0,0,0-1.15-3.07A14.26,14.26,0,0,0,33,19.23c-.64-.8-1.28-1.53-1.9-2.19a18.16,18.16,0,0,0-4.14-3.29Zm1-3.41a2.63,2.63,0,0,1-2.16-1L9.46,8c-.51-.53-.77-.77-.9-.88a3.84,3.84,0,0,1-.8-1A4.22,4.22,0,0,1,7.3,5,3,3,0,0,1,8,2.25l.05-.05a2.08,2.08,0,0,1,1.47-.69l.23,0h0a3.45,3.45,0,0,1,1,.3l.77.34a1.91,1.91,0,0,0,.71.1.5.5,0,0,0,.16,0A6.77,6.77,0,0,0,13,1.6a8,8,0,0,1,.87-.92A2.78,2.78,0,0,1,15.76,0a2.7,2.7,0,0,1,1.92.7,7.7,7.7,0,0,1,.83.93,3.14,3.14,0,0,0,.53.54.62.62,0,0,0,.35.06.35.35,0,0,0,.14,0,6.8,6.8,0,0,0,.62-.64,8.44,8.44,0,0,1,.91-.91A2.86,2.86,0,0,1,23,0a2.79,2.79,0,0,1,1.91.68,7,7,0,0,1,.88.95,5.07,5.07,0,0,0,.55.61.62.62,0,0,0,.2,0,1.76,1.76,0,0,0,.68-.09l.76-.34a3.45,3.45,0,0,1,1-.3h0l.23,0a2.08,2.08,0,0,1,1.47.69l.05.05a2.86,2.86,0,0,1,.69,1.38,3.47,3.47,0,0,1,0,1.31,3.54,3.54,0,0,1-.49,1.23,5,5,0,0,1-.7.88l-.06.05c-.13.11-.39.35-.9.88L27.9,9.35h0a2.75,2.75,0,0,1-1.09.81,4.71,4.71,0,0,1-1.44.19h-12Zm-.09-2.52h.09l.32,0h12l.62,0,.18-.18,1.35-1.4c.44-.46.78-.78,1-1a2.57,2.57,0,0,0,.32-.41,1,1,0,0,0,.14-.36,1,1,0,0,0,0-.3l-.72.32a4.17,4.17,0,0,1-1.68.3,2.7,2.7,0,0,1-1.92-.7,7.58,7.58,0,0,1-.83-.93,4.43,4.43,0,0,0-.56-.6h0a.53.53,0,0,0-.23,0,.5.5,0,0,0-.28.06,5.92,5.92,0,0,0-.64.64,9.29,9.29,0,0,1-.85.87,2.67,2.67,0,0,1-1.81.66,3,3,0,0,1-1.93-.62,5.65,5.65,0,0,1-.94-1A5.18,5.18,0,0,0,16,2.54a.62.62,0,0,0-.2,0,.5.5,0,0,0-.24,0,5.46,5.46,0,0,0-.6.63,9.29,9.29,0,0,1-.83.9,2.65,2.65,0,0,1-1.88.7,4.32,4.32,0,0,1-1.68-.29l-.78-.34h0a.5.5,0,0,0,0,.25,1.68,1.68,0,0,0,.18.46,1.31,1.31,0,0,0,.27.34c.24.21.59.55,1.05,1l1.35,1.4,0,0Z"/></g><g id="icon-carma"><path class="cls-7" d="M200.64,9.76h10a1.2,1.2,0,0,0,1.11-1.11,1.2,1.2,0,0,0-1.11-1.11h-10a1.85,1.85,0,0,0-1.11,1.39c0,.56.56.83,1.11.83m5,8.07a6.12,6.12,0,1,0,6.12,6.12,6.37,6.37,0,0,0-6.12-6.12m0,10.3a3.8,3.8,0,0,1-3.9-3.9,4,4,0,0,1,3.9-4.17,3.8,3.8,0,0,1,3.9,3.9,4,4,0,0,1-3.9,4.17m0-14.19a10,10,0,1,0,10,10,10,10,0,0,0-10-10m0,18.09a8.07,8.07,0,1,1,8.07-8.07A8.08,8.08,0,0,1,205.65,32M223.74,7.81h-4.17c-3.06,0-3.06-3.9-7-3.9H198.42c-3.9,0-3.9,3.9-7,3.9h-4.17a4,4,0,0,0-3.9,4.17V36.19a3.8,3.8,0,0,0,3.9,3.9h36.18a3.8,3.8,0,0,0,3.9-3.9V12a3.66,3.66,0,0,0-3.62-4.17m1.95,20.32h-8.63a13.57,13.57,0,0,1-.83,1.95H226v6.12A1.9,1.9,0,0,1,224,38.14H187.84a1.9,1.9,0,0,1-1.95-1.95V30.07h9.74a4.26,4.26,0,0,1-1.39-1.95h-8.91V12a2.15,2.15,0,0,1,1.95-2.23h3.9c3.9,0,3.9-3.9,7-3.9h14.47c3.06,0,3.06,3.9,7,3.9h3.9a1.9,1.9,0,0,1,1.95,1.95Zm-5-8.07c-.56,0-1.11.28-1.11.83a1.11,1.11,0,1,0,2.23,0c0-.56-.56-.83-1.11-.83m0-8.07A3.06,3.06,0,1,0,223.74,15,2.92,2.92,0,0,0,220.68,12m0,3.9a1.2,1.2,0,0,1-1.11-1.11,1.11,1.11,0,1,1,2.23,0A1.2,1.2,0,0,1,220.68,15.88Z"/></g><g id="icon-gift"><path class="cls-8" d="M317.22,20.54H279.6a3.19,3.19,0,0,1-3.19-3.19V12.09a3.19,3.19,0,0,1,3.19-3.19h37.62a3.19,3.19,0,0,1,3.19,3.19v5.26A3.19,3.19,0,0,1,317.22,20.54ZM279.6,10.92a1.18,1.18,0,0,0-1.18,1.18v5.26a1.18,1.18,0,0,0,1.18,1.18h37.62a1.18,1.18,0,0,0,1.18-1.18V12.09a1.18,1.18,0,0,0-1.18-1.18Z"/><path class="cls-8" d="M315.58,42.11H281.24a3.19,3.19,0,0,1-3.19-3.19V19.41h2V38.92a1.18,1.18,0,0,0,1.18,1.18h34.34a1.18,1.18,0,0,0,1.18-1.18V19.41h2V38.92A3.19,3.19,0,0,1,315.58,42.11ZM296.93,10.58h-1c-6.86-1.15-10.27-2.7-10.71-4.89a3.12,3.12,0,0,1,1.55-3l.05,0c1.8-1,4.52-.46,8.1,1.6a37.1,37.1,0,0,1,4.59,3.15l-1,1.2.35-.43-.35.43c1.08,0,2.42-.09,3.8-.21,5.35-.49,6.69-1.54,7-1.94.29-.65.53-1.73.18-2.15-.14-.17-.77-.66-3.2-.06a16.14,16.14,0,0,0-5,3.56l-1.48-1.36a17.83,17.83,0,0,1,5.73-4.08l.07,0,.07,0A8.91,8.91,0,0,1,309,1.94,3.06,3.06,0,0,1,311,3c1.31,1.6.17,4.09,0,4.37l0,.07,0,.06a6.15,6.15,0,0,1-3.61,2.05,29.24,29.24,0,0,1-4.92.81c-2.27.21-4.39.24-5.54.24Zm-.76-2c.19,0,.78,0,1.61,0a35.75,35.75,0,0,0-3.91-2.64c-2.8-1.61-5-2.17-6.07-1.58-.24.17-.7.6-.63.93S287.81,7.16,296.17,8.57Z"/><path class="cls-8" d="M301.46,42.11h-6.09V18.53h6.09V42.11Zm-4.08-2h2.07V20.54h-2.07Z"/></g><g id="icon-car"><path class="cls-9" d="M504.93,19.14H503.5V12.46h0a6.29,6.29,0,0,0-6.68-5.73h-6.68V3.39A1.47,1.47,0,0,0,488.71,2H463.89a1.47,1.47,0,0,0-1.43,1.43,1.47,1.47,0,0,0,1.43,1.43h23.38V20.57A1.47,1.47,0,0,0,488.71,22H503.5V34.41h-4.87a6.65,6.65,0,0,0-13.17,0h-5.92a6.65,6.65,0,0,0-13.17,0h-2.48a1.43,1.43,0,1,0,0,2.86h2.67a6.67,6.67,0,0,0,12.79,0h6.39a6.67,6.67,0,0,0,12.79,0H505a1.44,1.44,0,0,0,1.34-1v-.1c0-.1.1-.19.1-.38h0V20.57A1.63,1.63,0,0,0,504.93,19.14Zm-4.3-.29v.29h-10.5V9.59h6.68a3.83,3.83,0,0,1,3.82,3.82ZM473,39.18a3.82,3.82,0,1,1,3.82-3.82A3.83,3.83,0,0,1,473,39.18Zm19.09,0a3.82,3.82,0,1,1,3.82-3.82A3.83,3.83,0,0,1,492,39.18Z"/><path class="cls-9" d="M463.89,22h8.59a1.44,1.44,0,0,0,1.34-1V21c0-.1.1-.29.1-.38a.57.57,0,0,0-.1-.38v-.1a1.35,1.35,0,0,0-1.34-1h-8.59a1.43,1.43,0,0,0,0,2.86Z"/><path class="cls-9" d="M463.89,13.41h8.59a1.44,1.44,0,0,0,1.34-1v-.1c0-.1.1-.29.1-.38a.57.57,0,0,0-.1-.38v-.1a1.35,1.35,0,0,0-1.34-1h-8.59a1.43,1.43,0,0,0,0,2.86Z"/></g><path id="icon-star" class="cls-10" d="M402.87,42.91a3.39,3.39,0,0,1-1.63-.44l-8.88-4.62a1.74,1.74,0,0,0-.88-.22,2.64,2.64,0,0,0-.88.17l-8.84,4.67a3.19,3.19,0,0,1-1.67.44,3.76,3.76,0,0,1-2.77-1.26,3.41,3.41,0,0,1-.79-2.88L378.24,29a2,2,0,0,0-.57-1.66l-7.12-6.85a3.47,3.47,0,0,1-.92-3.66,3.63,3.63,0,0,1,2.9-2.44L382.38,13a2,2,0,0,0,1.45-1l4.4-8.9a3.61,3.61,0,0,1,6.42,0l4.4,8.9a1.93,1.93,0,0,0,1.45,1l9.85,1.44a3.65,3.65,0,0,1,2.9,2.4,3.53,3.53,0,0,1-.88,3.66l-7.08,6.89a1.83,1.83,0,0,0-.57,1.66l1.67,9.73a3.41,3.41,0,0,1-.79,2.88,3.49,3.49,0,0,1-2.73,1.31Zm-.57-2.66a1.51,1.51,0,0,0,.53.13,1.09,1.09,0,0,0,.84-.39,1,1,0,0,0,.22-.83l-1.67-9.73a4.27,4.27,0,0,1,1.27-3.88l7.08-6.93a1.16,1.16,0,0,0,.26-1.09,1,1,0,0,0-.88-.7l-9.85-1.44a4.37,4.37,0,0,1-3.34-2.4l-4.4-8.85a1,1,0,0,0-.92-.57,1.1,1.1,0,0,0-1,.61L386.07,13a4.47,4.47,0,0,1-3.34,2.4l-9.85,1.44a1.14,1.14,0,0,0-.84.7v0a1,1,0,0,0,.26,1l7.12,6.93a4.38,4.38,0,0,1,1.27,3.88L379,39.16a.83.83,0,0,0,.22.79,1.09,1.09,0,0,0,.84.39,1.35,1.35,0,0,0,.48-.09l8.88-4.62a3.88,3.88,0,0,1,2-.52,4.37,4.37,0,0,1,2,.52l8.8,4.62Z"/><g id="icon-headset"><path class="cls-11" d="M597.55,22.23a1.07,1.07,0,0,1-1.08-1.08,19,19,0,0,0-38,0,1.08,1.08,0,0,1-2.15,0,21.15,21.15,0,0,1,42.31,0,1.1,1.1,0,0,1-1.09,1.08Z"/><path class="cls-11" d="M597.55,22a.88.88,0,0,1-.88-.88,19.19,19.19,0,0,0-38.38,0,.88.88,0,0,1-1.76,0,21,21,0,1,1,41.92,0,.9.9,0,0,1-.89.88Z"/><path class="cls-11" d="M560.33,34.81a4,4,0,0,1-4-4V21.69a4,4,0,0,1,4-4h2.56a4,4,0,0,1,4,4v9.13a4,4,0,0,1-4,4h-2.56Zm0-15a1.85,1.85,0,0,0-1.84,1.84v9.13a1.85,1.85,0,0,0,1.84,1.84h2.56a1.85,1.85,0,0,0,1.84-1.84V21.69a1.85,1.85,0,0,0-1.84-1.84Z"/><path class="cls-11" d="M562.88,34.62h-2.56a3.81,3.81,0,0,1-3.8-3.81V21.69a3.81,3.81,0,0,1,3.8-3.81h2.56a3.81,3.81,0,0,1,3.8,3.81v9.13a3.81,3.81,0,0,1-3.8,3.8Zm-2.56-15a2,2,0,0,0-2,2v9.13a2,2,0,0,0,2,2h2.56a2,2,0,0,0,2-2V21.69a2,2,0,0,0-2-2Zm31.75,15.16a4,4,0,0,1-4-4V21.69a4,4,0,0,1,4-4h2.56a4,4,0,0,1,4,4v9.13a4,4,0,0,1-4,4h-2.56Zm0-15a1.85,1.85,0,0,0-1.84,1.84v9.13a1.85,1.85,0,0,0,1.84,1.84h2.56a1.85,1.85,0,0,0,1.84-1.84V21.69a1.85,1.85,0,0,0-1.84-1.84h-2.56Z"/><path class="cls-11" d="M594.64,34.62h-2.56a3.82,3.82,0,0,1-3.81-3.81V21.69a3.82,3.82,0,0,1,3.81-3.81h2.56a3.81,3.81,0,0,1,3.8,3.81v9.13a3.81,3.81,0,0,1-3.8,3.8Zm-2.56-15a2,2,0,0,0-2,2v9.13a2,2,0,0,0,2,2h2.56a2,2,0,0,0,2-2V21.69a2,2,0,0,0-2-2h-2.56Z"/><path class="cls-11" d="M582.52,41.24a1.08,1.08,0,0,1-.9-.48,1.09,1.09,0,0,1,.31-1.5l9.8-6.43a1.08,1.08,0,0,1,.59-.18,1.08,1.08,0,0,1,.6,2l-9.8,6.43a1.18,1.18,0,0,1-.6.18Z"/><path class="cls-11" d="M582.52,41a.88.88,0,0,1-.74-.4.89.89,0,0,1,.26-1.23l9.8-6.43a.89.89,0,1,1,1,1.48L583,40.91a1,1,0,0,1-.48.14Z"/><path class="cls-11" d="M575.94,44a3.28,3.28,0,0,1-3.27-3.27v-.28a3.28,3.28,0,0,1,3.27-3.27h4.38a3.28,3.28,0,0,1,3.27,3.27v.28A3.28,3.28,0,0,1,580.32,44Zm0-4.66a1.11,1.11,0,0,0-1.11,1.11v.28a1.11,1.11,0,0,0,1.11,1.11h4.38a1.11,1.11,0,0,0,1.11-1.11v-.28a1.12,1.12,0,0,0-1.11-1.11Z"/><path class="cls-11" d="M580.32,43.81h-4.38a3.08,3.08,0,0,1-3.08-3.08v-.28a3.08,3.08,0,0,1,3.08-3.08h4.38a3.08,3.08,0,0,1,3.08,3.08v.28A3.09,3.09,0,0,1,580.32,43.81Zm-4.38-4.66a1.3,1.3,0,0,0-1.3,1.3v.28a1.3,1.3,0,0,0,1.3,1.3h4.38a1.3,1.3,0,0,0,1.3-1.3v-.28a1.3,1.3,0,0,0-1.3-1.3Z"/></g><g id="icon-record"><path class="cls-12" d="M93,43.17V4a1.37,1.37,0,0,1,1.44-.78c1.87,0,3.75,0,5.62,0h.46c0-.25,0-.44,0-.63q0-1.3,0-2.6h2.11V3.2H122V0h2.11V3.23h.49c1.87,0,3.75,0,5.62,0a1.37,1.37,0,0,1,1.44.78V43.17a1.51,1.51,0,0,1-.75.83H93.8A1.52,1.52,0,0,1,93,43.17ZM129.52,5.38H95.22V41.84h34.29Z"/><path class="cls-12" d="M124.14,15v2.1H100.59V15Z"/><path class="cls-12" d="M124.14,21.49v2.1H100.59v-2.1Z"/><path class="cls-12" d="M100.58,30V27.94h15V30Z"/></g></g></g></svg>