<svg xmlns="http://www.w3.org/2000/svg" viewBox="0 0 44 40.21"><defs><style>.cls-1{fill:#ef8100;}</style></defs><title>icon-gift</title><g id="图层_2" data-name="图层 2"><g id="icon"><g id="icon-gift"><path class="cls-1" d="M40.81,18.65H3.19A3.19,3.19,0,0,1,0,15.46V10.2A3.19,3.19,0,0,1,3.19,7H40.81A3.19,3.19,0,0,1,44,10.2v5.26A3.19,3.19,0,0,1,40.81,18.65ZM3.19,9A1.18,1.18,0,0,0,2,10.2v5.26a1.18,1.18,0,0,0,1.18,1.18H40.81A1.18,1.18,0,0,0,42,15.46V10.2A1.18,1.18,0,0,0,40.81,9Z"/><path class="cls-1" d="M39.17,40.21H4.83A3.19,3.19,0,0,1,1.64,37V17.51h2V37A1.18,1.18,0,0,0,4.83,38.2H39.17A1.18,1.18,0,0,0,40.35,37V17.51h2V37A3.19,3.19,0,0,1,39.17,40.21ZM20.52,8.69h-1C12.64,7.52,9.24,6,8.79,3.78a3.12,3.12,0,0,1,1.55-3l.05,0c1.8-1,4.52-.46,8.1,1.6a37.1,37.1,0,0,1,4.59,3.15l-1,1.2.35-.43-.35.43c1.08,0,2.42-.09,3.8-.21,5.35-.49,6.69-1.54,7-1.94.29-.65.53-1.73.18-2.15-.14-.17-.77-.66-3.2-.06a16.14,16.14,0,0,0-5,3.56L23.44,4.49A17.83,17.83,0,0,1,29.17.41l.07,0,.07,0A8.91,8.91,0,0,1,32.57,0a3.06,3.06,0,0,1,2.06,1c1.31,1.6.17,4.09,0,4.37l0,.07,0,.06A6.15,6.15,0,0,1,31,7.64a29.24,29.24,0,0,1-4.92.81c-2.27.21-4.39.24-5.54.24Zm-.76-2c.19,0,.78,0,1.61,0A35.75,35.75,0,0,0,17.47,4c-2.8-1.61-5-2.17-6.07-1.58-.24.17-.7.6-.63.93S11.39,5.26,19.76,6.67Z"/><path class="cls-1" d="M25,40.21H19V16.64H25V40.21ZM21,38.2H23V18.65H21Z"/></g></g></g></svg>