<svg xmlns="http://www.w3.org/2000/svg" viewBox="0 0 88 88"><defs><style>.cls-1{fill:#02a9f1;}</style></defs><title>icon-qq</title><g id="图层_2" data-name="图层 2"><g id="icon"><path class="cls-1" d="M77.44,0H10.56A10.56,10.56,0,0,0,0,10.56V77.44A10.56,10.56,0,0,0,10.56,88H77.44A10.56,10.56,0,0,0,88,77.44V10.56A10.56,10.56,0,0,0,77.44,0ZM69.31,57.89a41.54,41.54,0,0,1-5.13,9.37s5.93,2,5.43,7.25c0,0,.2,5.84-12.66,5.44,0,0-9-.7-11.76-4.53H42.8C40.09,79.24,31,79.95,31,79.95c-12.86.4-12.66-5.44-12.66-5.44-.5-5.24,5.43-7.25,5.43-7.25a41.62,41.62,0,0,1-5.12-9.37c-8,13-7.24-1.82-7.24-1.82a27.92,27.92,0,0,1,7.84-14.5c-.91-8,2.41-9.37,2.41-9.37C22.4,7.6,43.56,8,44,8S65.6,7.6,66.3,32.21c0,0,3.31,1.41,2.41,9.36a27.94,27.94,0,0,1,7.84,14.5s.8,14.81-7.23,1.82Z"/></g></g></svg>