<svg xmlns="http://www.w3.org/2000/svg" viewBox="0 0 88 88"><defs><style>.cls-1{fill:#1ad780;}.cls-2{fill:#fff;}</style></defs><title>icon-item-article</title><g id="图层_2" data-name="图层 2"><g id="icon"><g id="icon-item-article"><rect class="cls-1" width="88" height="88" rx="8" ry="8"/><path class="cls-2" d="M59.64,66H28.36a4.62,4.62,0,0,1-4.68-4.68V26.82a4.62,4.62,0,0,1,4.68-4.68h3.22a1.61,1.61,0,1,1,0,3.22H28.36A1.62,1.62,0,0,0,26.75,27v34.5a1.62,1.62,0,0,0,1.61,1.61H59.64a1.62,1.62,0,0,0,1.61-1.61V26.82a1.62,1.62,0,0,0-1.61-1.61H56.72a1.5,1.5,0,0,1-1.46-1.61A1.59,1.59,0,0,1,56.72,22h2.92a4.62,4.62,0,0,1,4.68,4.68v34.5A4.65,4.65,0,0,1,59.64,66Z"/><path class="cls-2" d="M50.43,25.22H37.71a1.61,1.61,0,1,1,0-3.22H50.43a1.5,1.5,0,0,1,1.46,1.61,1.6,1.6,0,0,1-1.46,1.61Zm4.68,11H33.18a1.5,1.5,0,0,1-1.46-1.61A1.59,1.59,0,0,1,33.18,33H55.11a1.5,1.5,0,0,1,1.46,1.61A1.6,1.6,0,0,1,55.11,36.18Zm0,9.5H33.18a1.61,1.61,0,0,1,0-3.22H55.11a1.61,1.61,0,0,1,0,3.22Zm0,9.36H33a1.61,1.61,0,1,1,0-3.22H55.11a1.5,1.5,0,0,1,1.46,1.61A1.72,1.72,0,0,1,55.11,55Z"/></g></g></g></svg>