<svg xmlns="http://www.w3.org/2000/svg" xmlns:xlink="http://www.w3.org/1999/xlink" viewBox="0 0 38.68 44"><defs><style>.cls-1{fill:url(#未命名的渐变_40);}.cls-2{fill:url(#未命名的渐变_40-2);}.cls-3{fill:url(#未命名的渐变_40-3);}.cls-4{fill:url(#未命名的渐变_40-4);}.cls-5{fill:url(#未命名的渐变_40-5);}.cls-6{fill:url(#未命名的渐变_40-6);}</style><linearGradient id="未命名的渐变_40" x1="13.62" y1="26.99" x2="25.03" y2="26.99" gradientUnits="userSpaceOnUse"><stop offset="0" stop-color="#f6be00"/><stop offset="1" stop-color="#ebb500"/></linearGradient><linearGradient id="未命名的渐变_40-2" x1="13.62" y1="31.3" x2="25.03" y2="31.3" xlink:href="#未命名的渐变_40"/><linearGradient id="未命名的渐变_40-3" x1="18.06" y1="29.94" x2="20.58" y2="29.94" xlink:href="#未命名的渐变_40"/><linearGradient id="未命名的渐变_40-4" x1="13.67" y1="22.07" x2="20.6" y2="22.07" xlink:href="#未命名的渐变_40"/><linearGradient id="未命名的渐变_40-5" x1="18.08" y1="22.07" x2="25.01" y2="22.07" xlink:href="#未命名的渐变_40"/><linearGradient id="未命名的渐变_40-6" x1="0" y1="22" x2="38.68" y2="22" xlink:href="#未命名的渐变_40"/></defs><title>icon-money</title><g id="图层_2" data-name="图层 2"><g id="icon"><g id="icon-money"><path class="cls-1" d="M23.77,28.25H14.87a1.26,1.26,0,0,1,0-2.52h8.89a1.26,1.26,0,1,1,0,2.52Z"/><path class="cls-2" d="M23.77,32.56H14.87a1.26,1.26,0,1,1,0-2.52h8.89a1.26,1.26,0,1,1,0,2.52Z"/><path class="cls-3" d="M19.32,36.93a1.26,1.26,0,0,1-1.26-1.26V24.2a1.26,1.26,0,0,1,2.52,0V35.67A1.26,1.26,0,0,1,19.32,36.93Z"/><path class="cls-4" d="M19.34,25.46a1.25,1.25,0,0,1-.87-.35l-4.41-4.27A1.26,1.26,0,1,1,15.8,19l4.41,4.27a1.26,1.26,0,0,1-.87,2.16Z"/><path class="cls-5" d="M19.34,25.46a1.26,1.26,0,0,1-.87-2.16L22.88,19a1.26,1.26,0,1,1,1.75,1.81l-4.42,4.27A1.25,1.25,0,0,1,19.34,25.46Z"/><path class="cls-6" d="M19.38,44a31.08,31.08,0,0,1-8.56-1,16.44,16.44,0,0,1-6.1-3.11,12.41,12.41,0,0,1-3.61-5A17.88,17.88,0,0,1,0,28.32a16.42,16.42,0,0,1,.5-4.11,17.62,17.62,0,0,1,1.33-3.55,19.31,19.31,0,0,1,1.85-3,23.94,23.94,0,0,1,2.1-2.41A21.3,21.3,0,0,1,11,11.44a1.26,1.26,0,0,1,.61-.16l15.63,0h0a1.26,1.26,0,0,1,.62.16,20.53,20.53,0,0,1,5,3.87l0,0c.69.71,1.38,1.51,2.07,2.37a16.79,16.79,0,0,1,1.9,3,19.36,19.36,0,0,1,1.32,3.53,15.82,15.82,0,0,1,.52,4.12,17.88,17.88,0,0,1-1.12,6.5,12.42,12.42,0,0,1-3.61,5A16.45,16.45,0,0,1,27.88,43,30.69,30.69,0,0,1,19.38,44ZM12,13.8A18.32,18.32,0,0,0,7.56,17a21.42,21.42,0,0,0-1.88,2.16,16.79,16.79,0,0,0-1.61,2.59,15.1,15.1,0,0,0-1.14,3,13.91,13.91,0,0,0-.42,3.48,15.39,15.39,0,0,0,.95,5.58,9.92,9.92,0,0,0,2.89,4,14,14,0,0,0,5.17,2.61,28.61,28.61,0,0,0,7.86.94,28.22,28.22,0,0,0,7.79-.94,14,14,0,0,0,5.16-2.61,9.93,9.93,0,0,0,2.89-4,15.39,15.39,0,0,0,.95-5.58,13.31,13.31,0,0,0-.43-3.47,16.84,16.84,0,0,0-1.15-3.07A14.26,14.26,0,0,0,33,19.23c-.64-.8-1.28-1.53-1.9-2.19a18.16,18.16,0,0,0-4.14-3.29Zm1-3.41a2.63,2.63,0,0,1-2.16-1L9.46,8c-.51-.53-.77-.77-.9-.88a3.84,3.84,0,0,1-.8-1A4.22,4.22,0,0,1,7.3,5,3,3,0,0,1,8,2.25l.05-.05a2.08,2.08,0,0,1,1.47-.69l.23,0h0a3.45,3.45,0,0,1,1,.3l.77.34a1.91,1.91,0,0,0,.71.1.5.5,0,0,0,.16,0A6.77,6.77,0,0,0,13,1.6a8,8,0,0,1,.87-.92A2.78,2.78,0,0,1,15.76,0a2.7,2.7,0,0,1,1.92.7,7.7,7.7,0,0,1,.83.93,3.14,3.14,0,0,0,.53.54.62.62,0,0,0,.35.06.35.35,0,0,0,.14,0,6.8,6.8,0,0,0,.62-.64,8.44,8.44,0,0,1,.91-.91A2.86,2.86,0,0,1,23,0a2.79,2.79,0,0,1,1.91.68,7,7,0,0,1,.88.95,5.07,5.07,0,0,0,.55.61.62.62,0,0,0,.2,0,1.76,1.76,0,0,0,.68-.09l.76-.34a3.45,3.45,0,0,1,1-.3h0l.23,0a2.08,2.08,0,0,1,1.47.69l.05.05a2.86,2.86,0,0,1,.69,1.38,3.47,3.47,0,0,1,0,1.31,3.54,3.54,0,0,1-.49,1.23,5,5,0,0,1-.7.88l-.06.05c-.13.11-.39.35-.9.88L27.9,9.35h0a2.75,2.75,0,0,1-1.09.81,4.71,4.71,0,0,1-1.44.19h-12Zm-.09-2.52h.09l.32,0h12l.62,0,.18-.18,1.35-1.4c.44-.46.78-.78,1-1a2.57,2.57,0,0,0,.32-.41,1,1,0,0,0,.14-.36,1,1,0,0,0,0-.3l-.72.32a4.17,4.17,0,0,1-1.68.3,2.7,2.7,0,0,1-1.92-.7,7.58,7.58,0,0,1-.83-.93,4.43,4.43,0,0,0-.56-.6h0a.53.53,0,0,0-.23,0,.5.5,0,0,0-.28.06,5.92,5.92,0,0,0-.64.64,9.29,9.29,0,0,1-.85.87,2.67,2.67,0,0,1-1.81.66,3,3,0,0,1-1.93-.62,5.65,5.65,0,0,1-.94-1A5.18,5.18,0,0,0,16,2.54a.62.62,0,0,0-.2,0,.5.5,0,0,0-.24,0,5.46,5.46,0,0,0-.6.63,9.29,9.29,0,0,1-.83.9,2.65,2.65,0,0,1-1.88.7,4.32,4.32,0,0,1-1.68-.29l-.78-.34h0a.5.5,0,0,0,0,.25,1.68,1.68,0,0,0,.18.46,1.31,1.31,0,0,0,.27.34c.24.21.59.55,1.05,1l1.35,1.4,0,0Z"/></g></g></g></svg>