<svg xmlns="http://www.w3.org/2000/svg" xmlns:xlink="http://www.w3.org/1999/xlink" viewBox="0 0 504.5 56.5"><defs><style>.cls-1,.cls-10,.cls-12,.cls-5{fill:none;}.cls-1,.cls-11,.cls-12,.cls-5{stroke-miterlimit:10;}.cls-1{stroke:url(#未命名的渐变_73);}.cls-2{fill:url(#未命名的渐变_73-2);}.cls-3{fill:url(#未命名的渐变_73-3);}.cls-4{fill:url(#未命名的渐变_73-4);}.cls-5{stroke:url(#未命名的渐变_73-5);}.cls-6{fill:url(#未命名的渐变_73-6);}.cls-7{fill:url(#未命名的渐变_73-7);}.cls-8{fill:url(#未命名的渐变_73-8);}.cls-9{fill:url(#未命名的渐变_73-9);}.cls-10{stroke:#fff;stroke-linecap:round;stroke-linejoin:round;}.cls-10,.cls-12{stroke-width:2px;}.cls-11{fill:#fff;stroke:url(#未命名的渐变_73-10);}.cls-12{stroke:url(#未命名的渐变_73-11);}.cls-13{fill:url(#未命名的渐变_73-12);}.cls-14{fill:url(#未命名的渐变_73-13);}.cls-15{fill:url(#未命名的渐变_73-14);}.cls-16{fill:url(#未命名的渐变_73-15);}</style><linearGradient id="未命名的渐变_73" x1="139.96" y1="43.09" x2="166.78" y2="43.09" gradientUnits="userSpaceOnUse"><stop offset="0" stop-color="#fe6250"/><stop offset="1" stop-color="#ef0000"/></linearGradient><linearGradient id="未命名的渐变_73-2" x1="113.97" y1="28" x2="159.47" y2="28" xlink:href="#未命名的渐变_73"/><linearGradient id="未命名的渐变_73-3" x1="151.42" y1="39.16" x2="153.45" y2="39.16" xlink:href="#未命名的渐变_73"/><linearGradient id="未命名的渐变_73-4" x1="151.42" y1="44.7" x2="162.7" y2="44.7" xlink:href="#未命名的渐变_73"/><linearGradient id="未命名的渐变_73-5" x1="364.21" y1="43.09" x2="391.04" y2="43.09" xlink:href="#未命名的渐变_73"/><linearGradient id="未命名的渐变_73-6" x1="338.22" y1="28" x2="383.72" y2="28" xlink:href="#未命名的渐变_73"/><linearGradient id="未命名的渐变_73-7" x1="371.85" y1="42.99" x2="384.94" y2="42.99" xlink:href="#未命名的渐变_73"/><linearGradient id="未命名的渐变_73-8" x1="371.85" y1="42.99" x2="384.94" y2="42.99" xlink:href="#未命名的渐变_73"/><linearGradient id="未命名的渐变_73-9" x1="224.25" y1="28.92" x2="275.66" y2="28.92" xlink:href="#未命名的渐变_73"/><linearGradient id="未命名的渐变_73-10" x1="248.05" y1="16.22" x2="281.37" y2="16.22" xlink:href="#未命名的渐变_73"/><linearGradient id="未命名的渐变_73-11" x1="0" y1="13.25" x2="26.5" y2="13.25" xlink:href="#未命名的渐变_73"/><linearGradient id="未命名的渐变_73-12" x1="28.83" y1="5.44" x2="56.39" y2="21.35" xlink:href="#未命名的渐变_73"/><linearGradient id="未命名的渐变_73-13" x1="29.22" y1="42.61" x2="56" y2="42.61" xlink:href="#未命名的渐变_73"/><linearGradient id="未命名的渐变_73-14" x1="0" y1="42.61" x2="26.78" y2="42.61" xlink:href="#未命名的渐变_73"/><linearGradient id="未命名的渐变_73-15" x1="448.5" y1="28" x2="504.5" y2="28" xlink:href="#未命名的渐变_73"/></defs><title>icon-record_1</title><g id="图层_2" data-name="图层 2"><g id="icon"><g id="icon-pai-time"><circle class="cls-1" cx="153.37" cy="43.09" r="12.91"/><path class="cls-2" d="M140.46,43.09a12.91,12.91,0,0,1,19-11.38V9.39A9.42,9.42,0,0,0,150.08,0H123.35A9.42,9.42,0,0,0,114,9.39V46.61A9.42,9.42,0,0,0,123.35,56h26.72a9.31,9.31,0,0,0,1.52-.14A12.91,12.91,0,0,1,140.46,43.09Zm6.45-18.74a1,1,0,0,1,.55,1.34v0a1,1,0,0,1-1,.66H123.19a1,1,0,0,1-1-1.12,1.08,1.08,0,0,1,1.09-1h23.18A1,1,0,0,1,146.91,24.35ZM123.27,11.26h13a1.06,1.06,0,1,1,0,2.12h-13a1.06,1.06,0,1,1,0-2.12Zm13.18,24.63,0,0a1.09,1.09,0,0,1-.74.31h-12.5a1,1,0,0,1-1-1.12,1.08,1.08,0,0,1,1.09-1h12.4a1.08,1.08,0,0,1,.74.3A1.06,1.06,0,0,1,136.45,35.88Z"/><path class="cls-3" d="M152.43,32.93a1,1,0,0,1,1,1V44.33a1,1,0,0,1-2,.06V33.95a1,1,0,0,1,1-1Z"/><path class="cls-4" d="M152.36,43.55h9.4a.94.94,0,0,1,.94.94v.43a.94.94,0,0,1-.94.94h-9.4a.94.94,0,0,1-.94-.94v-.43A.94.94,0,0,1,152.36,43.55Z"/></g><g id="icon-pai-no"><circle class="cls-5" cx="377.62" cy="43.09" r="12.91"/><path class="cls-6" d="M374.33,0H347.6a9.42,9.42,0,0,0-9.39,9.39V46.61A9.42,9.42,0,0,0,347.6,56h26.72a9.31,9.31,0,0,0,1.52-.14,12.91,12.91,0,1,1,7.87-24.16V9.39A9.42,9.42,0,0,0,374.33,0ZM361.17,29.37l0,0a1.23,1.23,0,0,1-.84.35H346.1a1.19,1.19,0,0,1-1.1-1.27,1.22,1.22,0,0,1,1.24-1.12h14.09a1.22,1.22,0,0,1,.84.34A1.2,1.2,0,0,1,361.17,29.37Zm12.5-11.58v0a1.19,1.19,0,0,1-1.09.75H346.1a1.19,1.19,0,0,1-1.1-1.27,1.22,1.22,0,0,1,1.24-1.12h26.34a1.17,1.17,0,0,1,1.09,1.62Z"/><path class="cls-7" d="M383.4,37l1.54,1.42L373.39,49l-1.54-1.42Z"/><path class="cls-8" d="M371.85,38.38,373.39,37,384.94,47.6,383.4,49Z"/></g><g id="icon-pai-finish"><circle class="cls-9" cx="249.96" cy="28.92" r="25.7"/><path class="cls-10" d="M270,26.19A20.18,20.18,0,1,1,252.69,8.9"/><path class="cls-10" d="M262.63,26.78a12.84,12.84,0,1,1-8-9.85"/><path class="cls-11" d="M270.28,11.34l-.79-10L266.09,5l-7.34,6.3v8.92l-10,8.92,2.36,2.36,10.23-9.44h8.92L277.36,15l2.89-2.89Zm-1.84,8.13h-6v-6.3l4.2-4.46v6h6.3Z"/></g><g id="icon-pai-all"><rect class="cls-12" x="1" y="1" width="24.5" height="24.5" rx="5.94" ry="5.94"/><rect class="cls-13" x="29.22" width="26.78" height="26.78" rx="6.49" ry="6.49"/><rect class="cls-14" x="29.22" y="29.22" width="26.78" height="26.78" rx="6.49" ry="6.49"/><rect class="cls-15" y="29.22" width="26.78" height="26.78" rx="6.49" ry="6.49"/></g><path id="icon-pai-wallet" class="cls-16" d="M504.5,49.57a6,6,0,0,1-.4,2.21,5.47,5.47,0,0,1-1.14,1.8,5.32,5.32,0,0,1-1.73,1.21,6.16,6.16,0,0,1-2.33.51H455.5a13.36,13.36,0,0,1-3.42-.51,5.86,5.86,0,0,1-3.11-3,5.3,5.3,0,0,1-.46-2.21v-31a5.48,5.48,0,0,1,1.64-4c1.09-1.1,2.4-1.22,4-1.22h44.8c1.56,0,2.88.12,4,1.22a5.48,5.48,0,0,1,1.64,4V27.3h-14a5.21,5.21,0,0,0-4,1.31,5.39,5.39,0,0,0-1.63,4,7,7,0,0,0,.68,2.86,5.27,5.27,0,0,0,1.63,1.93,5.38,5.38,0,0,0,3.3,1.12h14V49.57ZM496.1,10.5h-28c2.22-1.16,4.33-2.77,6.3-3.85q2.59-1.37,5.12-2.74l3.95-2.12A7.36,7.36,0,0,1,487.32.71a8.59,8.59,0,0,1,2.87.59,7.72,7.72,0,0,1,2.34,1.8Zm-8.38,22.09a2.72,2.72,0,0,1,.8-2,2.82,2.82,0,0,1,3.95,0,2.72,2.72,0,0,1,.8,2,2.83,2.83,0,0,1-.8,2,2.74,2.74,0,0,1-3.95,0,2.83,2.83,0,0,1-.8-2Z"/></g></g></svg>