<svg xmlns="http://www.w3.org/2000/svg" viewBox="0 0 88 88"><defs><style>.cls-1{fill:#ff1022;}.cls-2{fill:#fff;}</style></defs><title>icon-sort-calender</title><g id="图层_2" data-name="图层 2"><g id="icon"><circle class="cls-1" cx="44" cy="44" r="44"/><path class="cls-2" d="M60.79,27.55H57.71v-4a1.65,1.65,0,0,0-1.64-1.64H56a1.64,1.64,0,0,0-1.64,1.64v4H33.84v-4a1.64,1.64,0,0,0-1.64-1.64h-.11a1.64,1.64,0,0,0-1.64,1.64v4H27.21A5.22,5.22,0,0,0,22,32.76V60.84a5.22,5.22,0,0,0,5.21,5.21H60.79A5.22,5.22,0,0,0,66,60.84V32.76a5.22,5.22,0,0,0-5.21-5.21Zm1.93,35.1H25.34V39.38H62.71V62.65Zm0-26.73H25.34V30.84H62.71v5.08Z"/><path class="cls-2" d="M39.55,59.58a1.58,1.58,0,0,0,2.18,0L56.9,44.38a1.5,1.5,0,1,0-2.12-2.12L40.63,56.41l-7.16-7.16a1.5,1.5,0,1,0-2.12,2.12l8.21,8.21Z"/></g></g></svg>