<svg xmlns="http://www.w3.org/2000/svg" viewBox="0 0 32 32"><defs><style>.cls-1{fill:#ef0000;}</style></defs><title>icon-helpCenter</title><g id="图层_2" data-name="图层 2"><g id="icon"><path class="cls-1" d="M16,0A16,16,0,1,0,32,16,16,16,0,0,0,16,0Zm0,30.4A14.4,14.4,0,1,1,30.4,16,14.42,14.42,0,0,1,16,30.4Z"/><path class="cls-1" d="M19.9,8.87a4.35,4.35,0,0,1,1.34,3.38,4.66,4.66,0,0,1-.89,2.81,24.55,24.55,0,0,1-2,1.85,4.51,4.51,0,0,0-1.1,1.3A3.41,3.41,0,0,0,16.83,20v.55H14.88V20a4.51,4.51,0,0,1,.46-2.09,9.34,9.34,0,0,1,2.42-2.78q.48-.48.82-.86a3.09,3.09,0,0,0,.7-1.9,3,3,0,0,0-.79-2.23,3.21,3.21,0,0,0-2.38-.84,3.13,3.13,0,0,0-2.66,1.18,4.52,4.52,0,0,0-.77,2.76H10.76a5.71,5.71,0,0,1,1.42-4,5.27,5.27,0,0,1,4-1.58A5.16,5.16,0,0,1,19.9,8.87Zm-3,13.75a1.37,1.37,0,0,1,.41,1,1.4,1.4,0,0,1-.41,1,1.51,1.51,0,0,1-1,.41,1.43,1.43,0,0,1-1.46-1.44,1.28,1.28,0,0,1,.43-1,1.35,1.35,0,0,1,1-.41A1.4,1.4,0,0,1,16.9,22.62Z"/></g></g></svg>