<svg xmlns="http://www.w3.org/2000/svg" viewBox="0 0 390.02 390.02"><defs><style>.cls-1{fill:#ef0000;}.cls-2{fill:none;stroke:#ef0000;stroke-miterlimit:10;stroke-width:12px;}</style></defs><title>icon-pai-finish_1</title><g id="图层_2" data-name="图层 2"><g id="board"><path class="cls-1" d="M113.54,210q10.69-10.69,21.89.51l22.4,22.4L110.74,280,126,295.25q3.82,3.82,9.16-1.53L178.94,250l3.31,3.31q5.09,5.09-1.53,11.71l-42,42q-11.2,11.2-20.1,2.29L80.71,271.33,91.4,260.64l10.43,10.43,36.39-36.39-10.43-10.43q-5.34-5.85-11.45.25l-43,43-8.65-8.65Z"/><path class="cls-1" d="M143.57,207.45q-8.91-8.91.25-18.07L165.2,168,158.58,165l11.2-11.2,6.36,3.31,7.38-7.38-6.36-2.8,10.43-10.43,8.4,3.31q8.4,6.87.51,13.74l-9.67,9.67,24.18,13,1-22.9,13.49,13.49-.76,16,25.7,12.47-11.2,11.2-16-7.89L222,215.6l-12.72-12.72.76-10.94-34.1-17.82-22.4,22.4,7.13,7.13,11.71-11.71q7.89-7.89,16.54.76l26,26q5.85,6.36-.51,12.72l-9.16,9.16-8.4-8.4,3.05-3.05q2.29-2.29,1-3.56l-22.4-22.4-9.16,9.16,26,26q5.85,6.36.25,12l-4.58,4.58Z"/><path class="cls-1" d="M207.45,141l-9.16-9.16,25.19-25.19-3.31-3.31,10.94-10.94,3.31,3.31,25.45-25.45L269,79.44Zm72.28-8.65,37.67-4.07-15.78,15.78-23.41,3.05q-5.35,24.18-21.38,41.23l-9.16-9.16q11.45-14.51,14.76-30L232.13,151l-5.34,8.91-9.67-9.67A40.46,40.46,0,0,0,222,131.61l12-12a60.77,60.77,0,0,1,0,26l10.18-10.18,20.36-1.53V115.07l9.93-9.93q-10.18,1.53-26,0l12-12q11.2-.51,17.56-4.33l9.93,9.93-9.67,5.09Z"/><rect class="cls-2" x="-2.99" y="121.01" width="396" height="148" rx="8" ry="8" transform="translate(-80.78 195.01) rotate(-45)"/></g></g></svg>