<svg xmlns="http://www.w3.org/2000/svg" viewBox="0 0 44 43.98"><defs><style>.cls-1{fill:#fff;}</style></defs><title>icon-message</title><g id="图层_2" data-name="图层 2"><g id="icon"><path id="icon-message" class="cls-1" d="M22,38.46a25.41,25.41,0,0,1-4.12-.34L8.24,44V34.24A18.41,18.41,0,0,1,0,19.24C0,8.61,9.85,0,22,0S44,8.61,44,19.24,34.15,38.46,22,38.46ZM22,2.73c-10.63,0-19.24,7.39-19.24,16.49C2.76,24.8,6,29.73,11,32.73l-.1,6.37,6.46-3.88a22.29,22.29,0,0,0,4.63.51c10.63,0,19.24-7.39,19.24-16.49S32.63,2.73,22,2.73ZM33,22a2.76,2.76,0,1,1,2.76-2.76A2.75,2.75,0,0,1,33,22ZM22,22a2.76,2.76,0,1,1,2.76-2.76A2.75,2.75,0,0,1,22,22ZM11,22a2.76,2.76,0,1,1,2.76-2.76A2.75,2.75,0,0,1,11,22Z"/></g></g></svg>