<svg xmlns="http://www.w3.org/2000/svg" viewBox="0 0 88 88"><defs><style>.cls-1{fill:#ffe00d;}.cls-2{fill:#fff;}</style></defs><title>icon-item-data</title><g id="图层_2" data-name="图层 2"><g id="icon"><g id="icon-item-data"><rect class="cls-1" width="88" height="88" rx="8" ry="8"/><path class="cls-2" d="M22,60.95a1.17,1.17,0,0,1,1.17-1.17H64.86a1.17,1.17,0,0,1,0,2.35H23.17A1.18,1.18,0,0,1,22,60.95Zm32.28-32H54a1.22,1.22,0,0,1-1.2-.93,1.27,1.27,0,0,1,.85-1.42l4.57-1.33a1.07,1.07,0,0,1,1.14.23,1.4,1.4,0,0,1,.41.62l0,.08,1,4.9A1.24,1.24,0,0,1,60,32.49l-.11,0h-.21a1.2,1.2,0,0,1-1.2-1l-.79-3.79.74-.15L59,28q-.12.22-.23.45t-.26.53l-.46.89a40.53,40.53,0,0,1-28.7,21h-.13A1.22,1.22,0,0,1,29,48.5,38,38,0,0,0,56.1,28.38l.29-.58a9.73,9.73,0,0,0,.47-.94l.69.3.22.72-3.5,1ZM59.65,31h.09v0Zm-1-4.35h0Zm.43.79.79,3.79a.31.31,0,0,0-.18-.21v.73l-.24-.71a.27.27,0,0,0-.13.31l-1-4.89.74-.15-.71.24a.4.4,0,0,0,.2.11h.11L54.16,28a.27.27,0,0,0,.13-.33.34.34,0,0,0-.12-.2.25.25,0,0,0-.11,0h.11v.75L54,27.46,58.88,26l-.64,1.48a10.69,10.69,0,0,1-.53,1.05A39.52,39.52,0,0,1,29.27,50a.29.29,0,0,0,.18-.32.31.31,0,0,0-.18-.21l-.09,0h.09v.75l-.13-.74A39.12,39.12,0,0,0,57.23,28.27c.06-.11.11-.21.23-.45s.19-.4.28-.56l1-1.71.4,1.93Zm-.78,9.1a1.25,1.25,0,0,1,1.22,1.21V60.84a1.22,1.22,0,0,1-2.43,0V37.79a1.19,1.19,0,0,1,1.22-1.21Zm-9.29,9a1.25,1.25,0,0,1,1.22,1.21v14a1.22,1.22,0,0,1-2.43,0v-14A1.19,1.19,0,0,1,49.06,45.58Zm-9.29,5.54A1.19,1.19,0,0,1,41,52.34v8.5a1.22,1.22,0,0,1-2.43,0v-8.5a1.19,1.19,0,0,1,1.22-1.21Zm-8.08,4.22v5.5a1.22,1.22,0,0,1-2.43,0v-5.5a1.22,1.22,0,0,1,2.43,0Z"/></g></g></g></svg>