<svg xmlns="http://www.w3.org/2000/svg" viewBox="0 0 44 44.1"><defs><style>.cls-1{fill:#fff;}</style></defs><title>icon-calender</title><g id="图层_2" data-name="图层 2"><g id="icon"><path class="cls-1" d="M38.79,5.6H35.71v-4A1.65,1.65,0,0,0,34.07,0H34a1.64,1.64,0,0,0-1.64,1.64v4H11.84v-4A1.64,1.64,0,0,0,10.2,0h-.11A1.64,1.64,0,0,0,8.45,1.64v4H5.21A5.22,5.22,0,0,0,0,10.81V38.89A5.22,5.22,0,0,0,5.21,44.1H38.79A5.22,5.22,0,0,0,44,38.89V10.81A5.22,5.22,0,0,0,38.79,5.6Zm1.93,35.1H3.34V17.43H40.71V40.7Zm0-26.73H3.34V8.89H40.71V14Z"/><path class="cls-1" d="M17.55,37.63a1.58,1.58,0,0,0,2.18,0L34.9,22.43a1.5,1.5,0,1,0-2.12-2.12L18.63,34.46,11.46,27.3a1.5,1.5,0,1,0-2.12,2.12l8.21,8.21Z"/></g></g></svg>