<svg xmlns="http://www.w3.org/2000/svg" viewBox="0 0 88 88"><defs><style>.cls-1{fill:#02a9f1;}</style></defs><title>icon-zhifubao</title><g id="图层_2" data-name="图层 2"><g id="icon"><path id="icon-zhifubao" class="cls-1" d="M88,59.89,59.69,50.37a49.15,49.15,0,0,0,4.5-9.64,45,45,0,0,0,2.65-9.89l-18.32-.15V24.43l22.19-.16V19.85H48.52V9.78H37.65V19.85H16.94v4.42l20.7-.15v6.71H21v3.51H55.22a32.88,32.88,0,0,1-1.69,6.38c-1.31,3.54-2.66,6.64-2.66,6.64s-16.05-5.62-24.51-5.62S7.63,45.15,6.63,55,11.42,70.2,19.57,72.17s15.67,0,22.22-3.23,13-10.48,13-10.48l33,16A16.28,16.28,0,0,1,71.71,88H16.29A16.28,16.28,0,0,1,0,71.73s0,0,0,0V16.29A16.28,16.28,0,0,1,16.27,0H71.71A16.28,16.28,0,0,1,88,16.27s0,0,0,0Zm-41.21-5.5S36.61,66.78,24.63,66.78,10.12,60.89,10.12,56.66s2.49-8.83,12.7-9.49,24,7.23,24,7.23Z"/></g></g></svg>