<svg xmlns="http://www.w3.org/2000/svg" viewBox="0 0 44 36.18"><defs><style>.cls-1{fill:#467fd3;}</style></defs><title>icon-carma</title><g id="图层_2" data-name="图层 2"><g id="icon"><g id="icon-carma"><path class="cls-1" d="M17.25,5.84h10a1.2,1.2,0,0,0,1.11-1.11,1.2,1.2,0,0,0-1.11-1.11h-10A1.85,1.85,0,0,0,16.14,5c0,.56.56.83,1.11.83m5,8.07A6.12,6.12,0,1,0,28.39,20a6.37,6.37,0,0,0-6.12-6.12m0,10.3a3.8,3.8,0,0,1-3.9-3.9,4,4,0,0,1,3.9-4.17,3.8,3.8,0,0,1,3.9,3.9,4,4,0,0,1-3.9,4.17m0-14.19a10,10,0,1,0,10,10,10,10,0,0,0-10-10m0,18.09A8.07,8.07,0,1,1,30.33,20a8.08,8.08,0,0,1-8.07,8.07M40.35,3.9H36.18c-3.06,0-3.06-3.9-7-3.9H15c-3.9,0-3.9,3.9-7,3.9H3.9A4,4,0,0,0,0,8.07V32.28a3.8,3.8,0,0,0,3.9,3.9H40.07a3.8,3.8,0,0,0,3.9-3.9V8.07A3.66,3.66,0,0,0,40.35,3.9M42.3,24.21H33.67a13.57,13.57,0,0,1-.83,1.95h9.74v6.12a1.9,1.9,0,0,1-1.95,1.95H4.45A1.9,1.9,0,0,1,2.5,32.28V26.16h9.74a4.26,4.26,0,0,1-1.39-1.95H1.95V8.07A2.15,2.15,0,0,1,3.9,5.84h3.9c3.9,0,3.9-3.9,7-3.9H29.22c3.06,0,3.06,3.9,7,3.9h3.9A1.9,1.9,0,0,1,42,7.79Zm-5-8.07c-.56,0-1.11.28-1.11.83a1.11,1.11,0,1,0,2.23,0c0-.56-.56-.83-1.11-.83m0-8.07a3.06,3.06,0,1,0,3.06,3.06,2.92,2.92,0,0,0-3.06-3.06m0,3.9a1.2,1.2,0,0,1-1.11-1.11,1.11,1.11,0,1,1,2.23,0A1.2,1.2,0,0,1,37.29,12Z"/></g></g></g></svg>