<svg xmlns="http://www.w3.org/2000/svg" viewBox="0 0 356.89 93"><defs><style>.cls-1{fill:#999;}.cls-2{fill:none;}.cls-3{fill:#ef0000;}</style></defs><title>icon-tabbar</title><g id="图层_2" data-name="图层 2"><g id="icon"><g id="icon-home"><g id="图层_2-2" data-name="图层 2"><g id="图层_1-2" data-name="图层 1-2"><path class="cls-1" d="M31.6,13,18.07,2.28a3.46,3.46,0,0,0-4.15,0L.41,13a1.06,1.06,0,0,0-.18,1.5h0a1.05,1.05,0,0,0,1.47.19h0l.42-.35V27.21c0,1.83,1.93,3.2,3.63,3.2H27.09c1.68,0,2.77-1.28,2.77-3.2V14.35l.39.29a1.09,1.09,0,0,0,.67.23A1.07,1.07,0,0,0,31.6,13ZM14.93,28.28V22.37c0-.29.53-.44,1.06-.44s1.06.15,1.06.44v5.91Zm12.8-1.06c0,.7-.19,1.06-.64,1.06H19.22s0,0,0,0V22.37c0-1.24-1-2.58-3.2-2.58s-3.2,1.34-3.2,2.58v5.87s0,0,0,0H5.76c-.67,0-1.49-.58-1.49-1.06V12.61L15.23,4a1.32,1.32,0,0,1,1.5,0l11,8.7V27.22Z"/></g></g></g><g id="icon-allpai"><g id="图层_2-3" data-name="图层 2"><g id="图层_1-2-2" data-name="图层 1-2"><path class="cls-1" d="M240.39,32h-5.26a4.57,4.57,0,0,1-4.57-4.57h0V17.6h9.83A4.57,4.57,0,0,1,245,22.17h0v5.26A4.57,4.57,0,0,1,240.39,32Zm3-9.9a3,3,0,0,0-3-3H232v8.38a3,3,0,0,0,3,3h5.33a3,3,0,0,0,3-3Zm-3-7.7h-9.83V4.57A4.57,4.57,0,0,1,235.13,0h5.26A4.57,4.57,0,0,1,245,4.57V9.83a4.57,4.57,0,0,1-4.57,4.57Zm3-9.83a3,3,0,0,0-3-3h-5.33a3,3,0,0,0-3,3V13h8.38a3,3,0,0,0,3-3ZM222.79,32h-5.26A4.57,4.57,0,0,1,213,27.43h0V22.17a4.57,4.57,0,0,1,4.57-4.57h9.83v9.83A4.57,4.57,0,0,1,222.79,32Zm3.13-13h-8.39a3,3,0,0,0-3,3v5.33a3,3,0,0,0,3,3h5.33a3,3,0,0,0,3-3ZM213,9.83V4.57A4.57,4.57,0,0,1,217.53,0h5.26a4.57,4.57,0,0,1,4.57,4.57h0V14.4h-9.83A4.57,4.57,0,0,1,213,9.83Zm13,3.13V4.57a3,3,0,0,0-3-3h-5.35a3,3,0,0,0-3,3h0V9.9a3,3,0,0,0,3,3Z"/></g></g></g><g id="icon-pai"><g id="图层_2-4" data-name="图层 2"><g id="图层_1-2-3" data-name="图层 1-2"><path class="cls-1" d="M131.78,25.46,122,15.5l4.64-4.71a2,2,0,0,0,0-2.85L119.35.59a2,2,0,0,0-2.78,0l0,0-14,14.16a2,2,0,0,0,0,2.85L109.84,25a2,2,0,0,0,2.78,0l0,0,4.64-4.71,9.82,10a2,2,0,0,0,2.78,0l0,0,1.87-1.89a2,2,0,0,0,0-2.85h0Zm-12.37-10L130.5,26.75a.19.19,0,0,1,0,.26l-1.87,1.89a.18.18,0,0,1-.26,0h0L117.29,17.66l-5.92,6a.18.18,0,0,1-.26,0l-7.25-7.35a.19.19,0,0,1,0-.26l14-14.16a.18.18,0,0,1,.26,0h0l7.25,7.36a.19.19,0,0,1,0,.26Z"/><path class="cls-1" d="M114.6,30.17H102.34a.92.92,0,0,0,0,1.83H114.6a.92.92,0,1,0,0-1.83Z"/></g></g></g><g id="icon-user"><g id="图层_2-5" data-name="图层 2"><g id="图层_1-2-4" data-name="图层 1-2"><path class="cls-1" d="M355.89,30.4a13.7,13.7,0,0,1-.1,1.6h-27a13.49,13.49,0,0,1,8.48-14.22,9.6,9.6,0,1,1,10,0A13.59,13.59,0,0,1,355.89,30.4Zm-11.2-11.76V17.24a8,8,0,1,0-5.6-.3v1.92a12,12,0,0,0-8.8,11.55h24A12,12,0,0,0,344.69,18.65Z"/></g></g></g><g id="icon-home-on"><path class="cls-2" d="M6.76,87.69h0Z"/><path class="cls-2" d="M17,81.33c-.54,0-1.06.15-1.06.44v5.91h2.13V81.78C18.06,81.48,17.54,81.33,17,81.33Z"/><polygon class="cls-2" points="20.22 87.69 28.1 87.69 28.11 87.69 20.22 87.69 20.22 87.69"/><path class="cls-3" d="M32.6,72.38h0L19.07,61.69a3.46,3.46,0,0,0-4.15,0L1.41,72.38a1.06,1.06,0,0,0-.18,1.5h0a1.05,1.05,0,0,0,1.47.19h0l.42-.35V86.61c0,1.83,1.93,3.2,3.63,3.2H28.09c1.68,0,2.77-1.28,2.77-3.2V73.75l.39.29a1.09,1.09,0,0,0,.67.23,1.07,1.07,0,0,0,.67-1.9ZM18.06,87.69H15.93V81.78c0-.29.53-.44,1.06-.44s1.06.15,1.06.44Zm12.12,0h-11v-7h-5v7h-10v-17h2v-2h3v-2h2v-1h2v-2h2v-1h4v1h1v1h2v2h2v1h2v1.67l.54-.44,3.18,3.85-.72.6v6.32h1Z"/><polygon class="cls-3" points="29.18 73.36 29.91 72.77 26.72 68.91 26.18 69.36 26.18 67.69 24.18 67.69 24.18 66.69 22.18 66.69 22.18 65.69 22.18 64.69 20.18 64.69 20.18 63.69 19.18 63.69 19.18 62.69 17.18 62.69 16.18 62.69 15.19 62.69 15.19 63.69 13.19 63.69 13.19 65.69 11.19 65.69 11.19 66.69 9.19 66.69 9.19 68.69 6.18 68.69 6.18 70.69 4.18 70.69 4.18 87.69 6.74 87.69 13.83 87.69 14.19 87.69 14.19 80.69 19.18 80.69 19.18 87.69 20.22 87.69 28.11 87.69 30.18 87.69 30.18 79.69 29.18 79.69 29.18 73.36"/></g><g id="icon-allpai-on"><path class="cls-2" d="M222.88,62.53h-5.35a3,3,0,0,0-3,3V70.9a3,3,0,0,0,3,3l8.39,0V65.57A3,3,0,0,0,222.88,62.53Z"/><path class="cls-3" d="M213,83.17v5.26A4.57,4.57,0,0,0,217.53,93h5.26a4.57,4.57,0,0,0,4.57-4.57V78.6h-9.83A4.57,4.57,0,0,0,213,83.17Zm13.47-1.63V89a2.52,2.52,0,0,1-2.52,2.52h-7.47A2.52,2.52,0,0,1,213.93,89V81.55A2.52,2.52,0,0,1,216.45,79h7.47A2.52,2.52,0,0,1,226.43,81.55Z"/><path class="cls-3" d="M240.39,61h-5.26a4.57,4.57,0,0,0-4.57,4.57V75.4h9.83A4.57,4.57,0,0,0,245,70.83V65.57A4.57,4.57,0,0,0,240.39,61Zm3.79,11.75a1.53,1.53,0,0,1-1.53,1.53h-9.95a1.53,1.53,0,0,1-1.53-1.53V63.81a1.53,1.53,0,0,1,1.53-1.53h9.95a1.53,1.53,0,0,1,1.53,1.53Z"/><path class="cls-3" d="M244.43,81.91v6.75a2.86,2.86,0,0,1-2.86,2.86h-7.79a2.86,2.86,0,0,1-2.86-2.86V81.91A2.86,2.86,0,0,1,233.79,79h7.79a2.83,2.83,0,0,1,1.48.43,4.54,4.54,0,0,0-2.67-.87h-9.83v9.83A4.57,4.57,0,0,0,235.13,93h5.26A4.57,4.57,0,0,0,245,88.43V83.17a4.53,4.53,0,0,0-1-2.8A2.84,2.84,0,0,1,244.43,81.91Z"/><path class="cls-3" d="M222.79,61h-5.26A4.57,4.57,0,0,0,213,65.57v5.26a4.57,4.57,0,0,0,4.57,4.57h9.83V65.57A4.57,4.57,0,0,0,222.79,61Zm3.13,13-8.39,0a3,3,0,0,1-3-3V65.57a3,3,0,0,1,3-3h5.35a3,3,0,0,1,3,3Z"/><rect class="cls-3" x="213.93" y="79.03" width="12.5" height="12.5" rx="2.52" ry="2.52"/><rect class="cls-3" x="231.18" y="62.28" width="13" height="12" rx="1.53" ry="1.53"/><path class="cls-3" d="M233.79,79a2.86,2.86,0,0,0-2.86,2.86v6.75a2.86,2.86,0,0,0,2.86,2.86h7.79a2.86,2.86,0,0,0,2.86-2.86V81.91A2.88,2.88,0,0,0,241.58,79Z"/></g><g id="icon-user-on"><path class="cls-3" d="M348.32,78.78a9.6,9.6,0,1,0-10,0A13.49,13.49,0,0,0,329.8,93h27a13.5,13.5,0,0,0-8.47-14.22Zm-17.14,13.5c-4.49-2.69,6-12.24,8.23-14.16a8.5,8.5,0,1,1,8,.28c6.79,3.15,8.75,13.88,8.75,13.88Z"/><path class="cls-3" d="M347.43,78.4a8.5,8.5,0,1,0-8-.28c-2.19,1.92-12.72,11.46-8.23,14.16h25S354.23,81.55,347.43,78.4Zm-4.14-4.12a1.22,1.22,0,0,1-1.19-1l2.39,0A1.22,1.22,0,0,1,343.29,74.28Zm0-2a3,3,0,1,1,3-3A3,3,0,0,1,343.29,72.28Z"/></g><g id="icon-pai-on"><path class="cls-2" d="M119.18,77.28,117,79.42l10.34,10.49h0a.18.18,0,0,0,.26,0L129.5,88a.19.19,0,0,0,0-.26Z"/><path class="cls-3" d="M130.78,86.46h0L121,76.5l4.64-4.71a2,2,0,0,0,0-2.85l-7.26-7.35a2,2,0,0,0-2.78,0l0,0-14,14.16a2,2,0,0,0,0,2.85L108.84,86a2,2,0,0,0,2.78,0l0,0,4.64-4.71,9.82,10a2,2,0,0,0,2.78,0l0,0,1.87-1.89A2,2,0,0,0,130.78,86.46ZM129.5,88l-1.87,1.89a.18.18,0,0,1-.26,0h0L117,79.42l-6.22,6.22a1.44,1.44,0,0,1-2,0L102,78.89a1.44,1.44,0,0,1,0-2l14.23-14.23a1.44,1.44,0,0,1,2,0l6.75,6.75a1.44,1.44,0,0,1,0,2l-5.87,5.87L129.5,87.75A.19.19,0,0,1,129.5,88Z"/><path class="cls-3" d="M113.6,91.17H101.34a.92.92,0,1,0,0,1.83H113.6a.92.92,0,1,0,0-1.83Z"/><path class="cls-3" d="M125.05,71.41a1.44,1.44,0,0,0,0-2l-6.75-6.75a1.44,1.44,0,0,0-2,0L102,76.86a1.44,1.44,0,0,0,0,2l6.75,6.75a1.44,1.44,0,0,0,2,0L117,79.42l2.14-2.14Z"/></g></g></g></svg>