<svg xmlns="http://www.w3.org/2000/svg" viewBox="0 0 88 88"><defs><style>.cls-1{fill:#7a88e1;}.cls-2{fill:#fff;}</style></defs><title>icon-item-paper</title><g id="图层_2" data-name="图层 2"><g id="icon"><g id="icon-item-paper"><rect class="cls-1" width="88" height="88" rx="8" ry="8"/><path class="cls-2" d="M44,51.86H33A1.57,1.57,0,0,0,33,55H44a1.57,1.57,0,0,0,0-3.14ZM61.29,22H26.71a3.14,3.14,0,0,0-3.14,3.14V62.86A3.14,3.14,0,0,0,26.71,66H61.29a3.15,3.15,0,0,0,3.15-3.14V25.14A3.15,3.15,0,0,0,61.29,22Zm0,39.29a1.57,1.57,0,0,1-1.57,1.57H28.29a1.57,1.57,0,0,1-1.57-1.57V26.71a1.57,1.57,0,0,1,1.57-1.57H59.71a1.57,1.57,0,0,1,1.57,1.57ZM55,33H33a1.57,1.57,0,0,0,0,3.14H55A1.57,1.57,0,0,0,55,33Zm0,9.43H33a1.57,1.57,0,1,0,0,3.14H55a1.57,1.57,0,0,0,0-3.14Z"/></g></g></g></svg>