<svg xmlns="http://www.w3.org/2000/svg" viewBox="0 0 44 37"><defs><style>.cls-1{fill:#f4ce66;}</style></defs><title>icon-pig</title><g id="图层_2" data-name="图层 2"><g id="icon"><path id="icon-pig" class="cls-1" d="M37.72,31.31c-1.1.52,0,4-1.27,5.07-.78.95-4.42.38-4.82.56-1.12-.25.48-2.32-.84-2.11a19.32,19.32,0,0,1-6.06.69c-.88,0-1.74,0-2.6-.13-.24,0,0,1.29-.8,1.54a22.23,22.23,0,0,1-3.49,0c-1.87,0-.8-2.31-1.28-2.67L15.72,34c-.47.12.21.92-.47,1.49-1.15.51-4.94.39-5.38-.51-.7-2.39.84-3.42.43-3.81a19.41,19.41,0,0,1-4-3.8C4,24.86,2.66,26.87.63,25c-1.25-1.68-.31-6.22.1-6.76.86-1.11,1.46.32,2.17-1.56A16.21,16.21,0,0,1,8.45,5.91C6.89,4.32,3.93,2,7.23.09c3.2-.65,9.4,2.44,9.4,2.44a29.7,29.7,0,0,1,7.75-1.14C35.94,1.39,44,9,44,18.38c0,5.64-1.23,9.7-6.28,12.93ZM11.68,9.7a2.37,2.37,0,1,0,2.37,2.37A2.37,2.37,0,0,0,11.68,9.7ZM33,8.28a29.35,29.35,0,0,0-9.57-1.36,1.37,1.37,0,1,0,0,2.73A23.46,23.46,0,0,1,33,11a1.37,1.37,0,1,0,0-2.73Z"/></g></g></svg>