<svg xmlns="http://www.w3.org/2000/svg" viewBox="0 0 88 88"><defs><style>.cls-1{fill:#ef0081;}.cls-2{fill:#fff;}</style></defs><title>icon-sort-money</title><g id="图层_2" data-name="图层 2"><g id="icon"><g id="icon-sort-money"><circle class="cls-1" cx="44" cy="44" r="44"/><path class="cls-2" d="M48.43,50.25H39.53a1.26,1.26,0,1,1,0-2.52h8.89a1.26,1.26,0,1,1,0,2.52Z"/><path class="cls-2" d="M48.43,54.56H39.53a1.26,1.26,0,1,1,0-2.52h8.89a1.26,1.26,0,1,1,0,2.52Z"/><path class="cls-2" d="M44,58.93a1.26,1.26,0,0,1-1.26-1.26V46.2a1.26,1.26,0,0,1,2.52,0V57.67A1.26,1.26,0,0,1,44,58.93Z"/><path class="cls-2" d="M44,47.46a1.25,1.25,0,0,1-.87-.35l-4.41-4.27A1.26,1.26,0,1,1,40.46,41l4.41,4.27A1.26,1.26,0,0,1,44,47.46Z"/><path class="cls-2" d="M44,47.46a1.26,1.26,0,0,1-.87-2.16L47.54,41a1.26,1.26,0,1,1,1.75,1.81l-4.42,4.27A1.25,1.25,0,0,1,44,47.46Z"/><path class="cls-2" d="M44,66a31.08,31.08,0,0,1-8.56-1,16.44,16.44,0,0,1-6.1-3.11,12.41,12.41,0,0,1-3.61-5,17.88,17.88,0,0,1-1.12-6.5,16.42,16.42,0,0,1,.5-4.11,17.62,17.62,0,0,1,1.33-3.55,19.31,19.31,0,0,1,1.85-3,23.94,23.94,0,0,1,2.1-2.41,21.3,21.3,0,0,1,5.24-3.83,1.26,1.26,0,0,1,.61-.16l15.63,0h0a1.26,1.26,0,0,1,.62.16,20.53,20.53,0,0,1,5,3.87l0,0c.69.71,1.38,1.51,2.07,2.37a16.79,16.79,0,0,1,1.9,3,19.36,19.36,0,0,1,1.32,3.53,15.82,15.82,0,0,1,.52,4.12,17.88,17.88,0,0,1-1.12,6.5,12.42,12.42,0,0,1-3.61,5A16.45,16.45,0,0,1,52.54,65,30.69,30.69,0,0,1,44,66ZM36.62,35.8A18.32,18.32,0,0,0,32.22,39a21.42,21.42,0,0,0-1.88,2.16,16.79,16.79,0,0,0-1.61,2.59,15.1,15.1,0,0,0-1.14,3,13.91,13.91,0,0,0-.42,3.48,15.39,15.39,0,0,0,.95,5.58,9.92,9.92,0,0,0,2.89,4,14,14,0,0,0,5.17,2.61,28.61,28.61,0,0,0,7.86.94,28.22,28.22,0,0,0,7.79-.94A14,14,0,0,0,57,59.93a9.93,9.93,0,0,0,2.89-4,15.39,15.39,0,0,0,.95-5.58,13.31,13.31,0,0,0-.43-3.47,16.84,16.84,0,0,0-1.15-3.07,14.26,14.26,0,0,0-1.61-2.56c-.64-.8-1.28-1.53-1.9-2.19a18.16,18.16,0,0,0-4.14-3.29Zm1-3.41a2.63,2.63,0,0,1-2.16-1L34.12,30c-.51-.53-.77-.77-.9-.88a3.84,3.84,0,0,1-.8-1A4.22,4.22,0,0,1,32,27a3,3,0,0,1,.7-2.74l.05-.05a2.08,2.08,0,0,1,1.47-.69l.23,0h0a3.45,3.45,0,0,1,1,.3l.77.34a1.91,1.91,0,0,0,.71.1.5.5,0,0,0,.16,0,6.77,6.77,0,0,0,.6-.65,8,8,0,0,1,.87-.92A2.78,2.78,0,0,1,40.42,22a2.7,2.7,0,0,1,1.92.7,7.7,7.7,0,0,1,.83.93,3.14,3.14,0,0,0,.53.54.62.62,0,0,0,.35.06.35.35,0,0,0,.14,0,6.8,6.8,0,0,0,.62-.64,8.44,8.44,0,0,1,.91-.91A2.86,2.86,0,0,1,47.62,22a2.79,2.79,0,0,1,1.91.68,7,7,0,0,1,.88.95,5.07,5.07,0,0,0,.55.61.62.62,0,0,0,.2,0,1.76,1.76,0,0,0,.68-.09l.76-.34a3.45,3.45,0,0,1,1-.3h0l.23,0a2.08,2.08,0,0,1,1.47.69l.05.05A2.86,2.86,0,0,1,56,25.63a3.47,3.47,0,0,1,0,1.31,3.54,3.54,0,0,1-.49,1.23,5,5,0,0,1-.7.88l-.06.05c-.13.11-.39.35-.9.88l-1.32,1.38h0a2.75,2.75,0,0,1-1.09.81,4.71,4.71,0,0,1-1.44.19h-12Zm-.09-2.52h.09l.32,0h12l.62,0,.18-.18,1.35-1.4c.44-.46.78-.78,1-1a2.57,2.57,0,0,0,.32-.41,1,1,0,0,0,.14-.36,1,1,0,0,0,0-.3l-.72.32a4.17,4.17,0,0,1-1.68.3,2.7,2.7,0,0,1-1.92-.7,7.58,7.58,0,0,1-.83-.93,4.43,4.43,0,0,0-.56-.6h0a.53.53,0,0,0-.23,0,.5.5,0,0,0-.28.06,5.92,5.92,0,0,0-.64.64,9.29,9.29,0,0,1-.85.87,2.67,2.67,0,0,1-1.81.66,3,3,0,0,1-1.93-.62,5.65,5.65,0,0,1-.94-1,5.18,5.18,0,0,0-.55-.61.62.62,0,0,0-.2,0,.5.5,0,0,0-.24,0,5.46,5.46,0,0,0-.6.63,9.29,9.29,0,0,1-.83.9,2.65,2.65,0,0,1-1.88.7,4.32,4.32,0,0,1-1.68-.29l-.78-.34h0a.5.5,0,0,0,0,.25,1.68,1.68,0,0,0,.18.46,1.31,1.31,0,0,0,.27.34c.24.21.59.55,1.05,1l1.35,1.4,0,0Z"/></g></g></g></svg>