<svg xmlns="http://www.w3.org/2000/svg" viewBox="0 0 32 32"><defs><style>.cls-1{fill:#999;}</style></defs><title>icon-edit</title><g id="图层_2" data-name="图层 2"><g id="icon"><path class="cls-1" d="M27.06,32H4.94A4.94,4.94,0,0,1,0,27.06V4.94A4.94,4.94,0,0,1,4.94,0H20.16a.89.89,0,1,1,0,1.79H4.94A3.15,3.15,0,0,0,1.79,4.94V27.06a3.15,3.15,0,0,0,3.15,3.15H27.06a3.15,3.15,0,0,0,3.15-3.15V10.73a.89.89,0,0,1,1.79,0V27.06A4.94,4.94,0,0,1,27.06,32Z"/><path class="cls-1" d="M13.76,19.13a.89.89,0,0,1-.63-1.53L30.47.26a.89.89,0,0,1,1.27,1.27L14.4,18.87A.89.89,0,0,1,13.76,19.13Z"/></g></g></svg>