<svg xmlns="http://www.w3.org/2000/svg" viewBox="0 0 42.32 44"><defs><style>.cls-1{fill:#5034c6;}</style></defs><title>icon-headset</title><g id="图层_2" data-name="图层 2"><g id="icon"><g id="icon-headset"><path class="cls-1" d="M41.23,22.23a1.07,1.07,0,0,1-1.08-1.08,19,19,0,1,0-38,0,1.08,1.08,0,0,1-2.15,0,21.15,21.15,0,0,1,42.31,0,1.1,1.1,0,0,1-1.09,1.08Z"/><path class="cls-1" d="M41.23,22a.88.88,0,0,1-.88-.88A19.19,19.19,0,0,0,2,21.14a.88.88,0,0,1-1.76,0,21,21,0,1,1,41.92,0,.9.9,0,0,1-.89.88Z"/><path class="cls-1" d="M4,34.81a4,4,0,0,1-4-4V21.69a4,4,0,0,1,4-4H6.56a4,4,0,0,1,4,4v9.13a4,4,0,0,1-4,4H4Zm0-15a1.85,1.85,0,0,0-1.84,1.84v9.13A1.85,1.85,0,0,0,4,32.66H6.56A1.85,1.85,0,0,0,8.4,30.82V21.69a1.85,1.85,0,0,0-1.84-1.84Z"/><path class="cls-1" d="M6.56,34.62H4A3.81,3.81,0,0,1,.2,30.81V21.69A3.81,3.81,0,0,1,4,17.88H6.56a3.81,3.81,0,0,1,3.8,3.81v9.13a3.81,3.81,0,0,1-3.8,3.8ZM4,19.65a2,2,0,0,0-2,2v9.13a2,2,0,0,0,2,2H6.56a2,2,0,0,0,2-2V21.69a2,2,0,0,0-2-2ZM35.76,34.81a4,4,0,0,1-4-4V21.69a4,4,0,0,1,4-4h2.56a4,4,0,0,1,4,4v9.13a4,4,0,0,1-4,4H35.76Zm0-15a1.85,1.85,0,0,0-1.84,1.84v9.13a1.85,1.85,0,0,0,1.84,1.84h2.56a1.85,1.85,0,0,0,1.84-1.84V21.69a1.85,1.85,0,0,0-1.84-1.84H35.76Z"/><path class="cls-1" d="M38.31,34.62H35.76a3.82,3.82,0,0,1-3.81-3.81V21.69a3.82,3.82,0,0,1,3.81-3.81h2.56a3.81,3.81,0,0,1,3.8,3.81v9.13a3.81,3.81,0,0,1-3.8,3.8Zm-2.56-15a2,2,0,0,0-2,2v9.13a2,2,0,0,0,2,2h2.56a2,2,0,0,0,2-2V21.69a2,2,0,0,0-2-2H35.76Z"/><path class="cls-1" d="M26.2,41.24a1.08,1.08,0,0,1-.9-.48,1.09,1.09,0,0,1,.31-1.5l9.8-6.43a1.08,1.08,0,0,1,.59-.18,1.08,1.08,0,0,1,.6,2l-9.8,6.43a1.18,1.18,0,0,1-.6.18Z"/><path class="cls-1" d="M26.2,41a.88.88,0,0,1-.74-.4.89.89,0,0,1,.26-1.23L35.51,33a.89.89,0,1,1,1,1.48l-9.8,6.43a1,1,0,0,1-.48.14Z"/><path class="cls-1" d="M19.62,44a3.28,3.28,0,0,1-3.27-3.27v-.28a3.28,3.28,0,0,1,3.27-3.27H24a3.28,3.28,0,0,1,3.27,3.27v.28A3.28,3.28,0,0,1,24,44Zm0-4.66a1.11,1.11,0,0,0-1.11,1.11v.28a1.11,1.11,0,0,0,1.11,1.11H24a1.11,1.11,0,0,0,1.11-1.11v-.28A1.12,1.12,0,0,0,24,39.34Z"/><path class="cls-1" d="M24,43.81H19.62a3.08,3.08,0,0,1-3.08-3.08v-.28a3.08,3.08,0,0,1,3.08-3.08H24a3.08,3.08,0,0,1,3.08,3.08v.28A3.09,3.09,0,0,1,24,43.81Zm-4.38-4.66a1.3,1.3,0,0,0-1.3,1.3v.28a1.3,1.3,0,0,0,1.3,1.3H24a1.3,1.3,0,0,0,1.3-1.3v-.28a1.3,1.3,0,0,0-1.3-1.3Z"/></g></g></g></svg>