<svg xmlns="http://www.w3.org/2000/svg" viewBox="0 0 32 32"><defs><style>.cls-1{fill:#fff;}</style></defs><title>icon-share</title><g id="图层_2" data-name="图层 2"><g id="board"><path class="cls-1" d="M29.54,25.86a3.68,3.68,0,0,1-3.69,3.68H6.15a3.69,3.69,0,0,1-3.69-3.69V9.43A3.69,3.69,0,0,1,6.15,5.74H7.88a1.23,1.23,0,1,0,0-2.46H6.15A6.15,6.15,0,0,0,0,9.43V25.85A6.16,6.16,0,0,0,6.15,32H25.85A6.14,6.14,0,0,0,32,25.86V16.43a1.23,1.23,0,0,0-2.46,0v9.42ZM20.91,5.33l-.21,0A10.22,10.22,0,0,0,10.45,15.58v6.58a1.25,1.25,0,0,0,2.46,0V15.58a7.79,7.79,0,0,1,7.79-7.79H27.8L24.57,11a1.23,1.23,0,0,0,1.74,1.74l5.33-5.33a1.23,1.23,0,0,0,0-1.74L26.31.36A1.23,1.23,0,1,0,24.57,2.1l3.23,3.23Z"/></g></g></svg>