<svg xmlns="http://www.w3.org/2000/svg" viewBox="0 0 120 120"><defs><style>.cls-1{fill:#eee;}.cls-2{fill:#ffdaa5;}.cls-3,.cls-4{fill:none;stroke:#000;stroke-width:3px;}.cls-3{stroke-miterlimit:10;}.cls-4{stroke-linecap:round;stroke-linejoin:round;}</style></defs><title>icon-appear</title><g id="图层_2" data-name="图层 2"><g id="icon"><g id="icon-appear"><circle class="cls-1" cx="60" cy="60" r="60"/><path class="cls-2" d="M23.72,24.73h47.7A24.67,24.67,0,0,1,96.1,49.41V74.49a36.19,36.19,0,0,1-36.19,36.19h0A36.19,36.19,0,0,1,23.72,74.49V24.73a0,0,0,0,1,0,0Z"/><path d="M23.72,24.32h68a5.17,5.17,0,0,1,5.17,5.17v.34A5.17,5.17,0,0,1,91.75,35h-68a0,0,0,0,1,0,0V24.32A0,0,0,0,1,23.72,24.32Z"/><path d="M23.72,35H96.51a5.35,5.35,0,0,1,5.35,5.35v0a5.35,5.35,0,0,1-5.35,5.35H23.72a0,0,0,0,1,0,0V35A0,0,0,0,1,23.72,35Z"/><circle class="cls-2" cx="23.31" cy="68.32" r="7.81"/><circle class="cls-2" cx="95.69" cy="68.32" r="7.81"/><circle class="cls-3" cx="46.34" cy="72.43" r="10.69"/><circle class="cls-3" cx="72.66" cy="72.43" r="10.69"/><line class="cls-4" x1="36.88" y1="67.09" x2="22.9" y2="60.51"/><line class="cls-4" x1="82.94" y1="67.09" x2="96.92" y2="60.51"/><circle cx="53.74" cy="73.26" r="2.06"/><circle cx="65.26" cy="73.26" r="2.06"/><line class="cls-4" x1="52.51" y1="91.76" x2="58.68" y2="97.93"/><line class="cls-4" x1="65.26" y1="91.76" x2="59.09" y2="97.93"/></g></g></g></svg>