<svg xmlns="http://www.w3.org/2000/svg" viewBox="0 0 88 88"><defs><style>.cls-1{fill:#ffe00d;}.cls-2{fill:#fff;}</style></defs><title>icon-helpcenter</title><g id="图层_2" data-name="图层 2"><g id="icon"><circle class="cls-1" cx="44" cy="44" r="44"/><path class="cls-2" d="M44,22A22,22,0,1,0,66,44,22,22,0,0,0,44,22Zm0,41.8A19.8,19.8,0,1,1,63.8,44,19.82,19.82,0,0,1,44,63.8Z"/><path class="cls-2" d="M49.36,34.2a6,6,0,0,1,1.85,4.65A6.41,6.41,0,0,1,50,42.71a33.76,33.76,0,0,1-2.71,2.54A6.2,6.2,0,0,0,45.77,47a4.69,4.69,0,0,0-.63,2.44v.76H42.47v-.76a6.21,6.21,0,0,1,.63-2.87,12.84,12.84,0,0,1,3.33-3.83q.66-.66,1.12-1.19a4.24,4.24,0,0,0,1-2.61,4.15,4.15,0,0,0-1.09-3.07,4.42,4.42,0,0,0-3.27-1.15,4.3,4.3,0,0,0-3.66,1.62,6.21,6.21,0,0,0-1.06,3.79H36.79a7.86,7.86,0,0,1,1.95-5.54,7.24,7.24,0,0,1,5.54-2.18A7.1,7.1,0,0,1,49.36,34.2ZM45.24,53.11a1.88,1.88,0,0,1,.56,1.39,1.92,1.92,0,0,1-.56,1.42,2.07,2.07,0,0,1-1.42.56,2,2,0,0,1-2-2,1.77,1.77,0,0,1,.59-1.39,1.86,1.86,0,0,1,1.42-.56A1.92,1.92,0,0,1,45.24,53.11Z"/></g></g></svg>