<svg xmlns="http://www.w3.org/2000/svg" xmlns:xlink="http://www.w3.org/1999/xlink" viewBox="0 0 44 44"><defs><style>.cls-1{fill:url(#未命名的渐变_11);}.cls-2{fill:#fffdfd;}</style><linearGradient id="未命名的渐变_11" x1="6.97" y1="-4.03" x2="37.03" y2="48.03" gradientUnits="userSpaceOnUse"><stop offset="0" stop-color="#7a88e1"/><stop offset="1" stop-color="#7a5ee1"/></linearGradient></defs><title>icon-ten</title><g id="图层_2" data-name="图层 2"><g id="icon"><g id="icon-ten"><rect class="cls-1" width="44" height="44"/><path class="cls-2" d="M15.4,9.59h1.27v3.79H21.4V14.6H16.67v6.07H15.4V14.6H10.64V13.38H15.4Z"/><path class="cls-2" d="M22.82,13.63H33.2v1.21H30V18.9c0,.31.14.47.41.47h1.32a.36.36,0,0,0,.34-.28,6.81,6.81,0,0,0,.17-1.75l1.13.36a5.31,5.31,0,0,1-.46,2.41,1.21,1.21,0,0,1-.95.37H30.06q-1.27,0-1.27-1.32V14.84H27v.24a7,7,0,0,1-1,3.66,5.78,5.78,0,0,1-2.9,2l-.67-1.06A5.06,5.06,0,0,0,25,17.95a5.88,5.88,0,0,0,.74-2.87v-.24h-3Zm.94-3.52h8.4v1.2h-8.4Z"/><path class="cls-2" d="M10.55,27.48H13.9l.28-1.1h-2.8V25.21h3.06l.28-1.36L16,24l-.23,1.25h5v1.16H15.52l-.25,1.1h6.18v1.2h-6.5q-.23.76-.4,1.24H20V31a10.1,10.1,0,0,1-2.47,2.38q.82.28,1.79.71l-.7,1.08a30.24,30.24,0,0,0-5.46-1.94l.66-1q1.31.32,2.34.66a10.85,10.85,0,0,0,2.33-1.82H12.76q.37-1,.8-2.39h-3Z"/><path class="cls-2" d="M23.22,24.42H32.9v1.2H24.44v7.79h8.83v1.2h-10Zm2.94,1.9q1.56,1.19,2.9,2.36a13.79,13.79,0,0,0,1.57-2.74l1.14.6a14.77,14.77,0,0,1-1.74,3q1.34,1.25,2.33,2.32l-1,1a24.7,24.7,0,0,0-2.18-2.32,10.58,10.58,0,0,1-3.46,2.4L25,31.81a9.49,9.49,0,0,0,3.22-2.17q-1.34-1.21-3-2.45Z"/></g></g></g></svg>