<svg xmlns="http://www.w3.org/2000/svg" viewBox="0 0 88 88"><defs><style>.cls-1{fill:#7a88e1;}.cls-2{fill:#fff;}</style></defs><title>icon-sort-ten</title><g id="图层_2" data-name="图层 2"><g id="icon"><g id="icon-sort-ten"><circle class="cls-1" cx="44" cy="44" r="44"/><path class="cls-2" d="M46.26,20.68a5.16,5.16,0,0,0-4.52,0L24.26,30.44A4.88,4.88,0,0,0,22,34.29V53.7a4.89,4.89,0,0,0,2.26,3.85l17.48,9.77a5.18,5.18,0,0,0,4.52,0l17.48-9.77A4.88,4.88,0,0,0,66,53.71V34.3a4.88,4.88,0,0,0-2.26-3.85L46.26,20.68ZM26.91,56.08a4.89,4.89,0,0,1-2.26-3.85V37.42c0-1.42,1-2,2.26-1.33l13.5,7.54a4.89,4.89,0,0,1,2.26,3.85V62.3c0,1.42-1,2-2.26,1.33Zm1.18-22.28c-1.24-.69-1.24-1.83,0-2.52l13.65-7.63a5.16,5.16,0,0,1,4.52,0l13.65,7.63c1.24.69,1.24,1.83,0,2.53L46.26,41.42a5.16,5.16,0,0,1-4.52,0ZM63.35,52.22a4.89,4.89,0,0,1-2.26,3.85l-13.5,7.54c-1.24.69-2.26.1-2.26-1.32V47.49a4.89,4.89,0,0,1,2.26-3.85l13.5-7.55c1.24-.69,2.26-.1,2.26,1.33v14.8Z"/></g></g></g></svg>