<svg xmlns="http://www.w3.org/2000/svg" viewBox="0 0 88 88"><defs><style>.cls-1{fill:#00a0ea;}.cls-2{fill:#fff;}</style></defs><title>icon-sort-teach</title><g id="图层_2" data-name="图层 2"><g id="icon"><g id="icon-sort-teach"><circle class="cls-1" cx="44" cy="44" r="44"/><path class="cls-2" d="M62.83,22H29.21c-3.53,0-5.38,1.85-5.38,5.38v32.4l.07-.49a6.47,6.47,0,0,0-.07.92,5.42,5.42,0,0,0,5.8,5.8h32.7a1.83,1.83,0,0,0,1.83-1.83V23.34A1.84,1.84,0,0,0,62.33,22ZM35.44,24.56h8V41.21l-4-1.83-3.92,1.83V24.56ZM61.61,63.44H29.14a2.75,2.75,0,1,1,0-5.5H61.61v5.5Zm0-8.06H29.14a6.39,6.39,0,0,0-2.75.62V27a2.15,2.15,0,0,1,2.33-2.45H33V44.24a.92.92,0,0,0,1.38.79l4.47-2.6a.89.89,0,0,1,.91,0l4.71,2.64a.92.92,0,0,0,1.37-.8V24.56H61.61V55.38h0Z"/></g></g></g></svg>