<svg xmlns="http://www.w3.org/2000/svg" viewBox="0 0 88 88"><defs><style>.cls-1{fill:#69cd85;}.cls-2{fill:#fff;}</style></defs><title>icon-sort-carma</title><g id="图层_2" data-name="图层 2"><g id="icon"><g id="icon-sort-carma"><circle class="cls-1" cx="44" cy="44" r="44"/><path class="cls-2" d="M39.25,31.76h10a1.11,1.11,0,0,0,0-2.23h-10a1.85,1.85,0,0,0-1.11,1.39c0,.56.56.83,1.11.83m5,8.07a6.12,6.12,0,1,0,6.12,6.12,6.37,6.37,0,0,0-6.12-6.12m0,10.3a3.8,3.8,0,0,1-3.9-3.9,4,4,0,0,1,3.9-4.17,3.8,3.8,0,0,1,3.9,3.9,4,4,0,0,1-3.9,4.17m0-14.19a10,10,0,1,0,10,10,10,10,0,0,0-10-10m0,18.09a8.07,8.07,0,1,1,8.07-8.07A8.08,8.08,0,0,1,44.26,54M62.35,29.81H58.18c-3.06,0-3.06-3.9-7-3.9H37c-3.9,0-3.9,3.9-7,3.9H25.9A4,4,0,0,0,22,34V58.19a3.8,3.8,0,0,0,3.9,3.9H62.07a3.8,3.8,0,0,0,3.9-3.9V34a3.66,3.66,0,0,0-3.62-4.17M64.3,50.12H55.67a13.57,13.57,0,0,1-.83,1.95h9.74v6.12a1.9,1.9,0,0,1-1.95,1.95H26.45a1.9,1.9,0,0,1-1.95-1.95V52.07h9.74a4.26,4.26,0,0,1-1.39-1.95H23.95V34a2.15,2.15,0,0,1,1.95-2.23h3.9c3.9,0,3.9-3.9,7-3.9H51.22c3.06,0,3.06,3.9,7,3.9h3.9A1.9,1.9,0,0,1,64,33.7Zm-5-8.07c-.56,0-1.11.28-1.11.83a1.11,1.11,0,1,0,2.23,0c0-.56-.56-.83-1.11-.83m0-8.07A3.06,3.06,0,1,0,62.35,37,2.92,2.92,0,0,0,59.29,34m0,3.9a1.11,1.11,0,1,1,1.11-1.11A1.2,1.2,0,0,1,59.29,37.88Z"/></g></g></g></svg>