<svg xmlns="http://www.w3.org/2000/svg" viewBox="0 0 32 31.8"><defs><style>.cls-1{fill:#999;}</style></defs><title>icon-code</title><g id="图层_2" data-name="图层 2"><g id="icon"><g id="icon-code"><path class="cls-1" d="M12.92,0H2A2,2,0,0,0,0,2V12.92a2,2,0,0,0,2,2H12.92a2,2,0,0,0,2-2V2A2,2,0,0,0,12.92,0ZM2,12.92V2H12.92V12.92Zm10.93,4H2a2,2,0,0,0-2,2V29.81a2,2,0,0,0,2,2H12.92a2,2,0,0,0,2-2V18.88a2.14,2.14,0,0,0-2-2ZM2,29.81V18.88H12.92V29.81H2ZM31.8,12.92V2a2,2,0,0,0-2-2H18.88a2,2,0,0,0-2,2V12.92a2,2,0,0,0,2,2H29.81A2,2,0,0,0,31.8,12.92Zm-12.92,0V2H29.81V12.92Zm.2,4.77a.94.94,0,0,0-1,1V30.61a1,1,0,1,0,2,0V18.68A.94.94,0,0,0,19.08,17.69Zm6,2a.94.94,0,0,0-1,1v9.94a1,1,0,1,0,2,0V20.67a.94.94,0,0,0-1-1Zm6-2a.94.94,0,0,0-1,1V30.61a1,1,0,0,0,2,0V18.68A.94.94,0,0,0,31,17.69Z"/></g></g></g></svg>