<svg xmlns="http://www.w3.org/2000/svg" viewBox="0 0 30.94 32"><defs><style>.cls-1{fill:none;}.cls-2{fill:#ef0000;}</style></defs><title>icon-pai-on</title><g id="图层_2" data-name="图层 2"><g id="icon"><g id="icon-pai-on"><path class="cls-1" d="M18.76,16.28l-2.14,2.14L27,28.91h0a.18.18,0,0,0,.26,0L29.08,27a.19.19,0,0,0,0-.26Z"/><path class="cls-2" d="M30.36,25.46h0l-9.81-10,4.64-4.71a2,2,0,0,0,0-2.85L17.93.59a2,2,0,0,0-2.78,0l0,0-14,14.16a2,2,0,0,0,0,2.85L8.42,25a2,2,0,0,0,2.78,0l0,0,4.64-4.71,9.82,10a2,2,0,0,0,2.78,0l0,0,1.87-1.89A2,2,0,0,0,30.36,25.46ZM29.08,27l-1.87,1.89a.18.18,0,0,1-.26,0h0L16.62,18.42,10.4,24.64a1.44,1.44,0,0,1-2,0L1.61,17.89a1.44,1.44,0,0,1,0-2L15.85,1.63a1.44,1.44,0,0,1,2,0l6.75,6.75a1.44,1.44,0,0,1,0,2l-5.87,5.87L29.08,26.75A.19.19,0,0,1,29.08,27Z"/><path class="cls-2" d="M13.18,30.17H.92A.92.92,0,1,0,.92,32H13.18a.92.92,0,0,0,0-1.83Z"/><path class="cls-2" d="M24.63,10.41a1.44,1.44,0,0,0,0-2L17.88,1.63a1.44,1.44,0,0,0-2,0L1.61,15.86a1.44,1.44,0,0,0,0,2l6.75,6.75a1.44,1.44,0,0,0,2,0l6.22-6.22,2.14-2.14Z"/></g></g></g></svg>