<svg xmlns="http://www.w3.org/2000/svg" viewBox="0 0 44 41.83"><defs><style>.cls-1{fill:#ef0081;}</style></defs><title>icon-star</title><g id="图层_2" data-name="图层 2"><g id="icon"><path id="icon-star" class="cls-1" d="M33.43,41.83a3.39,3.39,0,0,1-1.63-.44l-8.88-4.62a1.74,1.74,0,0,0-.88-.22,2.64,2.64,0,0,0-.88.17l-8.84,4.67a3.19,3.19,0,0,1-1.67.44,3.76,3.76,0,0,1-2.77-1.26,3.41,3.41,0,0,1-.79-2.88l1.72-9.77a2,2,0,0,0-.57-1.66L1.11,19.41a3.47,3.47,0,0,1-.92-3.66,3.63,3.63,0,0,1,2.9-2.44l9.85-1.44a2,2,0,0,0,1.45-1L18.79,2a3.61,3.61,0,0,1,6.42,0l4.4,8.9a1.93,1.93,0,0,0,1.45,1l9.85,1.44a3.65,3.65,0,0,1,2.9,2.4,3.53,3.53,0,0,1-.88,3.66l-7.08,6.89a1.83,1.83,0,0,0-.57,1.66L37,37.64a3.41,3.41,0,0,1-.79,2.88,3.49,3.49,0,0,1-2.73,1.31Zm-.57-2.66a1.51,1.51,0,0,0,.53.13,1.09,1.09,0,0,0,.84-.39,1,1,0,0,0,.22-.83l-1.67-9.73A4.27,4.27,0,0,1,34,24.47l7.08-6.93a1.16,1.16,0,0,0,.26-1.09,1,1,0,0,0-.88-.7l-9.85-1.44a4.37,4.37,0,0,1-3.34-2.4l-4.4-8.85A1,1,0,0,0,22,2.49a1.1,1.1,0,0,0-1,.61l-4.4,8.81a4.47,4.47,0,0,1-3.34,2.4L3.44,15.74a1.14,1.14,0,0,0-.84.7v0a1,1,0,0,0,.26,1L10,24.47a4.38,4.38,0,0,1,1.27,3.88L9.6,38.08a.83.83,0,0,0,.22.79,1.09,1.09,0,0,0,.84.39,1.35,1.35,0,0,0,.48-.09L20,34.54A3.88,3.88,0,0,1,22,34a4.37,4.37,0,0,1,2,.52l8.8,4.62Z"/></g></g></svg>