<svg xmlns="http://www.w3.org/2000/svg" viewBox="0 0 88 88"><defs><style>.cls-1{fill:#f08000;}.cls-2{fill:#fff;}</style></defs><title>icon-sort-gift</title><g id="图层_2" data-name="图层 2"><g id="icon"><g id="icon-sort-gift"><circle class="cls-1" cx="44" cy="44" r="44"/><path class="cls-2" d="M62.81,42.54H25.19A3.19,3.19,0,0,1,22,39.35V34.09a3.19,3.19,0,0,1,3.19-3.19H62.81A3.19,3.19,0,0,1,66,34.09v5.26A3.19,3.19,0,0,1,62.81,42.54ZM25.19,32.92A1.18,1.18,0,0,0,24,34.09v5.26a1.18,1.18,0,0,0,1.18,1.18H62.81A1.18,1.18,0,0,0,64,39.35V34.09a1.18,1.18,0,0,0-1.18-1.18Z"/><path class="cls-2" d="M61.17,64.11H26.83a3.19,3.19,0,0,1-3.19-3.19V41.41h2V60.92a1.18,1.18,0,0,0,1.18,1.18H61.17a1.18,1.18,0,0,0,1.18-1.18V41.41h2V60.92A3.19,3.19,0,0,1,61.17,64.11ZM42.52,32.58h-1c-6.86-1.15-10.27-2.7-10.71-4.89a3.12,3.12,0,0,1,1.55-3l.05,0c1.8-1,4.52-.46,8.1,1.6a37.1,37.1,0,0,1,4.59,3.15l-1,1.2.35-.43-.35.43c1.08,0,2.42-.09,3.8-.21,5.35-.49,6.69-1.54,7-1.94.29-.65.53-1.73.18-2.15-.14-.17-.77-.66-3.2-.06a16.14,16.14,0,0,0-5,3.56l-1.48-1.36a17.83,17.83,0,0,1,5.73-4.08l.07,0,.07,0a8.91,8.91,0,0,1,3.26-.32,3.06,3.06,0,0,1,2.06,1c1.31,1.6.17,4.09,0,4.37l0,.07,0,.06A6.15,6.15,0,0,1,53,31.54a29.24,29.24,0,0,1-4.92.81c-2.27.21-4.39.24-5.54.24Zm-.76-2c.19,0,.78,0,1.61,0a35.75,35.75,0,0,0-3.91-2.64c-2.8-1.61-5-2.17-6.07-1.58-.24.17-.7.6-.63.93S33.39,29.16,41.76,30.57Z"/><path class="cls-2" d="M47,64.11H41V40.53H47V64.11ZM43,62.1H45V42.54H43Z"/></g></g></g></svg>