<svg xmlns="http://www.w3.org/2000/svg" viewBox="0 0 88 88"><defs><style>.cls-1{fill:#ef0081;}.cls-2{fill:#fff;}</style></defs><title>icon-item-gift</title><g id="图层_2" data-name="图层 2"><g id="icon"><g id="icon-item-gift"><rect class="cls-1" width="88" height="88" rx="8" ry="8"/><path class="cls-2" d="M62.24,30.21H60.17a8.93,8.93,0,0,0-8.8-8.31A8.64,8.64,0,0,0,44,26a8.81,8.81,0,0,0-7.42-4.05,8.93,8.93,0,0,0-8.8,8.31H25.76A3.76,3.76,0,0,0,22,34v9.1a3.7,3.7,0,0,0,3.46,3.76v17.8a1.52,1.52,0,0,0,1.48,1.48H61a1.52,1.52,0,0,0,1.48-1.48V50.67a1.48,1.48,0,1,0-3,0V63.13H28.53V46.82H30.6a1.48,1.48,0,0,0,0-3H25.76a.85.85,0,0,1-.79-.79V34a.85.85,0,0,1,.79-.79H62.24A.85.85,0,0,1,63,34v9.1a.85.85,0,0,1-.79.79H57.5a1.48,1.48,0,1,0,0,3h4.75A3.76,3.76,0,0,0,66,43.06V34A3.76,3.76,0,0,0,62.24,30.21ZM36.63,24.87a6,6,0,0,1,5.83,5.34H30.9A5.8,5.8,0,0,1,36.63,24.87Zm14.73,0a6,6,0,0,1,5.83,5.34H45.53A6,6,0,0,1,51.37,24.87Z"/></g></g></g></svg>