<svg xmlns="http://www.w3.org/2000/svg" viewBox="0 0 44 40.09"><defs><style>.cls-1{fill:#17ceab;}</style></defs><title>icon-car</title><g id="图层_2" data-name="图层 2"><g id="icon"><g id="icon-car"><path class="cls-1" d="M42.47,17.18H41V10.5h0a6.29,6.29,0,0,0-6.68-5.73H27.68V1.43A1.47,1.47,0,0,0,26.25,0H1.43A1.47,1.47,0,0,0,0,1.43,1.47,1.47,0,0,0,1.43,2.86H24.82V18.61A1.47,1.47,0,0,0,26.25,20H41V32.45H36.17a6.65,6.65,0,0,0-13.17,0H17.08a6.65,6.65,0,0,0-13.17,0H1.43a1.43,1.43,0,1,0,0,2.86H4.1a6.67,6.67,0,0,0,12.79,0h6.39a6.67,6.67,0,0,0,12.79,0h6.49a1.44,1.44,0,0,0,1.34-1v-.1c0-.1.1-.19.1-.38h0V18.61A1.63,1.63,0,0,0,42.47,17.18Zm-4.3-.29v.29H27.68V7.64h6.68a3.83,3.83,0,0,1,3.82,3.82ZM10.5,37.22a3.82,3.82,0,1,1,3.82-3.82A3.83,3.83,0,0,1,10.5,37.22Zm19.09,0a3.82,3.82,0,1,1,3.82-3.82A3.83,3.83,0,0,1,29.59,37.22Z"/><path class="cls-1" d="M1.43,20H10a1.44,1.44,0,0,0,1.34-1V19c0-.1.1-.29.1-.38a.57.57,0,0,0-.1-.38v-.1a1.35,1.35,0,0,0-1.34-1H1.43a1.43,1.43,0,0,0,0,2.86Z"/><path class="cls-1" d="M1.43,11.45H10a1.44,1.44,0,0,0,1.34-1v-.1c0-.1.1-.29.1-.38a.57.57,0,0,0-.1-.38v-.1a1.35,1.35,0,0,0-1.34-1H1.43a1.43,1.43,0,0,0,0,2.86Z"/></g></g></g></svg>