<svg xmlns="http://www.w3.org/2000/svg" viewBox="0 0 88 88"><defs><style>.cls-1{fill:#f08000;}.cls-2{fill:#fff;}</style></defs><title>icon-item-car</title><g id="图层_2" data-name="图层 2"><g id="icon"><g id="icon-item-car"><rect class="cls-1" width="88" height="88" rx="8" ry="8"/><path class="cls-2" d="M64.47,41.14H63V34.46h0a6.29,6.29,0,0,0-6.68-5.73H49.68V25.39A1.47,1.47,0,0,0,48.25,24H23.43a1.43,1.43,0,0,0,0,2.86H46.82V42.57A1.47,1.47,0,0,0,48.25,44H63V56.41H58.17a6.65,6.65,0,0,0-13.17,0H39.08a6.65,6.65,0,0,0-13.17,0H23.43a1.43,1.43,0,1,0,0,2.86H26.1a6.67,6.67,0,0,0,12.79,0h6.39a6.67,6.67,0,0,0,12.79,0h6.49a1.44,1.44,0,0,0,1.34-1v-.1c0-.1.1-.19.1-.38h0V42.57A1.63,1.63,0,0,0,64.47,41.14Zm-4.3-.29v.29H49.68V31.59h6.68a3.83,3.83,0,0,1,3.82,3.82ZM32.5,61.18a3.82,3.82,0,1,1,3.82-3.82A3.83,3.83,0,0,1,32.5,61.18Zm19.09,0a3.82,3.82,0,1,1,3.82-3.82A3.83,3.83,0,0,1,51.59,61.18Z"/><path class="cls-2" d="M23.43,44H32a1.44,1.44,0,0,0,1.34-1V43c0-.1.1-.29.1-.38a.57.57,0,0,0-.1-.38v-.1a1.35,1.35,0,0,0-1.34-1H23.43a1.43,1.43,0,0,0,0,2.86Z"/><path class="cls-2" d="M23.43,35.41H32a1.44,1.44,0,0,0,1.34-1v-.1c0-.1.1-.29.1-.38a.57.57,0,0,0-.1-.38v-.1a1.35,1.35,0,0,0-1.34-1H23.43a1.43,1.43,0,0,0,0,2.86Z"/></g></g></g></svg>