<svg xmlns="http://www.w3.org/2000/svg" viewBox="0 0 31.51 32"><defs><style>.cls-1{fill:#999;fill-rule:evenodd;}</style></defs><title>icon-copy</title><g id="图层_2" data-name="图层 2"><g id="icon"><g id="icon-copy"><path class="cls-1" d="M20.35,12.07H5.79a.8.8,0,1,0,0,1.6H20.35a.81.81,0,0,0,.81-.8.8.8,0,0,0-.81-.8Zm0,6.11H5.79a.8.8,0,1,0,0,1.6H20.35a.81.81,0,0,0,.81-.8.8.8,0,0,0-.81-.8Zm-5.67,6.11H5.79a.8.8,0,1,0,0,1.6h8.89a.8.8,0,1,0,0-1.6Z"/><path class="cls-1" d="M28,0H8.86A3.21,3.21,0,0,0,5.38,3.47V6H3.48A3.21,3.21,0,0,0,0,9.43V28.53C0,32,3.48,32,3.48,32H22.64a3.4,3.4,0,0,0,2.22-.7l.1-.07a3.08,3.08,0,0,0,.32-.32l.07-.1a4.17,4.17,0,0,0,.78-2.27V26H28a3.4,3.4,0,0,0,2.22-.7l.1-.07a3.08,3.08,0,0,0,.32-.32l.07-.1a4.17,4.17,0,0,0,.78-2.27V3.47A3.21,3.21,0,0,0,28,0Zm-3.4,27.43a3.68,3.68,0,0,1-.69,2l-.07.09a2.25,2.25,0,0,1-.28.29l-.09.07a3,3,0,0,1-2,.62h-17A3,3,0,0,1,1.5,27.43V10.53A2.84,2.84,0,0,1,4.59,7.46h17a2.84,2.84,0,0,1,3.08,3.07V27.43Zm5.38-6a3.68,3.68,0,0,1-.69,2l-.07.09a2.24,2.24,0,0,1-.28.29l-.09.07a3,3,0,0,1-2,.62h-.78V9.43A3.21,3.21,0,0,0,22.64,6H6.88V4.57A2.84,2.84,0,0,1,10,1.5h17A2.84,2.84,0,0,1,30,4.57V21.47Z"/></g></g></g></svg>