<svg xmlns="http://www.w3.org/2000/svg" viewBox="0 0 44 43.78"><defs><style>.cls-1{fill:#fff;}</style></defs><title>icon-setting</title><g id="图层_2" data-name="图层 2"><g id="icon"><path id="icon-setting" class="cls-1" d="M16.94,43.56c-.66-.44-1.32-1.1-1.32-1.76-.22-1.1-1.1-3.74-2.86-4.62-1.54-.88-4.62-.22-5.5,0A3.19,3.19,0,0,1,4.84,37,3,3,0,0,1,4,36.3L.66,31a2.44,2.44,0,0,1,.88-3.08,4.14,4.14,0,0,0,1.54-1.76,5.59,5.59,0,0,0-2.2-7.92V17.6A2,2,0,0,1,.22,15,31.8,31.8,0,0,1,2,11,26.74,26.74,0,0,1,4.62,7.48c1.1-1.1,2.2-1.32,2.86-.88H7.7a6,6,0,0,0,8.14-2.2,9.43,9.43,0,0,0,.66-2.2A2.59,2.59,0,0,1,18.92,0l6.82.22c.44,0,.66.22,1.1.44A2.52,2.52,0,0,1,28.6,2.2c.22.88,1.1,3.74,2.86,4.62,1.54.88,4.4.44,5.28,0a3.8,3.8,0,0,1,2.2.22,3,3,0,0,1,.88.66l3.3,5.5a2.44,2.44,0,0,1-.88,3.08A4.14,4.14,0,0,0,40.7,18,5.59,5.59,0,0,0,42.9,26h.22c.88.44,1.1,1.54.66,2.86a31.8,31.8,0,0,1-1.76,4,26.74,26.74,0,0,1-2.64,3.52,2.58,2.58,0,0,1-2.86.88H36.3a6,6,0,0,0-8.14,2.2,9.43,9.43,0,0,0-.66,2.2,2.59,2.59,0,0,1-2.42,2.2h-6.6A3.26,3.26,0,0,1,16.94,43.56Zm1.32-2.42h0l6.38.22a7.15,7.15,0,0,1,1.1-3.08A8.85,8.85,0,0,1,37.18,35,30,30,0,0,0,39.6,31.9a10.39,10.39,0,0,0,1.54-3.52,8.43,8.43,0,0,1-2.86-11.22,8,8,0,0,1,2.42-2.42L37.62,9.68H37.4c-.22,0-1.1.22-2.64.44a8.11,8.11,0,0,1-4.84-.66,6.67,6.67,0,0,1-3.08-3.74A7.89,7.89,0,0,1,26,3.3l-.22-.22H19.36a7.15,7.15,0,0,1-1.1,3.08A8.87,8.87,0,0,1,6.82,9c-.22.44-1.54,2-2.42,3.3a14.12,14.12,0,0,0-1.54,3.52A8.43,8.43,0,0,1,5.72,27.06,8,8,0,0,1,3.3,29.48l3.08,5.06H6.6a12,12,0,0,1,2.64-.44,9.19,9.19,0,0,1,5.06.66,7.63,7.63,0,0,1,3.3,4A10,10,0,0,1,18.26,41.14ZM17.82,28.6A7.65,7.65,0,0,1,15,18a8.11,8.11,0,0,1,11-2.86,7.65,7.65,0,0,1,2.86,10.56A8.11,8.11,0,0,1,17.82,28.6Zm6.82-11a5.3,5.3,0,0,0-7.26,1.76,5,5,0,0,0,2,7,5.64,5.64,0,0,0,7.26-2A5,5,0,0,0,24.64,17.6Z"/></g></g></svg>