<?xml version="1.0" encoding="utf-8"?>
<!-- Generator: Adobe Illustrator 21.1.0, SVG Export Plug-In . SVG Version: 6.00 Build 0)  -->
<svg version="1.1" id="图层_1" xmlns="http://www.w3.org/2000/svg" xmlns:xlink="http://www.w3.org/1999/xlink" x="0px" y="0px"
	 viewBox="0 0 17.7 32" style="enable-background:new 0 0 17.7 32;" xml:space="preserve">
<style type="text/css">
	.st0{fill:#333333;}
</style>
<title>icon-back</title>
<g id="图层_2">
	<g id="icon">
		<g id="icon-link">
			<path class="st0" d="M7.7,26.6"/>
			<path class="st0" d="M7.6,28.1"/>
			<path class="st0" d="M3.8,16l13.6,13.5c0.5,0.5,0.5,1.2,0,1.7c0,0,0,0,0,0l-0.4,0.4c-0.5,0.5-1.2,0.5-1.7,0c0,0,0,0,0,0L0.3,16.9
				c-0.5-0.5-0.5-1.2,0-1.7L15.2,0.3c0.5-0.5,1.2-0.5,1.7,0c0,0,0,0,0,0l0.4,0.4c0.5,0.5,0.5,1.2,0,1.7c0,0,0,0,0,0L3.8,16z"/>
		</g>
	</g>
</g>
</svg>
