<svg xmlns="http://www.w3.org/2000/svg" viewBox="0 0 88 88"><defs><style>.cls-1{fill:#00a0ea;}.cls-2{fill:#fff;}</style></defs><title>icon-item-bell</title><g id="图层_2" data-name="图层 2"><g id="icon"><g id="icon-item-bell"><rect class="cls-1" width="88" height="88" rx="8" ry="8"/><path class="cls-2" d="M64.38,61.17l-5.3-10.6V40a15.1,15.1,0,0,0-13-14.93v-1a2.09,2.09,0,0,0-4.18,0v1A15.1,15.1,0,0,0,28.92,40V50.58l-5.3,10.6a1.45,1.45,0,0,0,1.3,2.1H39.24a5.51,5.51,0,0,0,9.51,0H63.08a1.45,1.45,0,0,0,1.3-2.1Zm-16.54-.8a1.45,1.45,0,0,0-1.37,1,2.61,2.61,0,0,1-4.94,0,1.45,1.45,0,0,0-1.37-1H27.27l4.4-8.8a1.45,1.45,0,0,0,.15-.65V40a12.18,12.18,0,1,1,24.36,0v10.9a1.44,1.44,0,0,0,.15.65l4.4,8.8H47.84Z"/></g></g></g></svg>