<svg xmlns="http://www.w3.org/2000/svg" viewBox="0 0 38.64 44"><defs><style>.cls-1{fill:#ef0000;}</style></defs><title>icon-record</title><g id="图层_2" data-name="图层 2"><g id="icon"><g id="icon-record"><path class="cls-1" d="M0,43.17V4a1.37,1.37,0,0,1,1.44-.78c1.87,0,3.75,0,5.62,0h.46c0-.25,0-.44,0-.63q0-1.3,0-2.6H9.66V3.2H29V0h2.11V3.23h.49c1.87,0,3.75,0,5.62,0A1.37,1.37,0,0,1,38.64,4V43.17a1.51,1.51,0,0,1-.75.83H.75A1.52,1.52,0,0,1,0,43.17ZM36.47,5.38H2.18V41.84H36.47Z"/><path class="cls-1" d="M31.1,15v2.1H7.55V15Z"/><path class="cls-1" d="M31.1,21.49v2.1H7.55v-2.1Z"/><path class="cls-1" d="M7.54,30V27.94h15V30Z"/></g></g></g></svg>